<svg xmlns="http://www.w3.org/2000/svg" width="16.964" height="20.833" viewBox="0 0 16.964 20.833"><defs><style>.a{fill:#f77e0b;}</style></defs><g transform="translate(-47.548)"><path class="a" d="M61.716,11.07A4.714,4.714,0,0,1,63.965,7.1a4.865,4.865,0,0,0-3.809-2.064c-1.622-.164-3.166.955-3.989.955s-2.092-.931-3.437-.906A5.1,5.1,0,0,0,48.42,7.7c-1.837,3.188-.471,7.911,1.32,10.5.875,1.266,1.918,2.687,3.288,2.636,1.319-.053,1.818-.854,3.413-.854s2.043.854,3.439.827c1.42-.026,2.319-1.29,3.188-2.559a11.488,11.488,0,0,0,1.443-2.963A4.6,4.6,0,0,1,61.716,11.07ZM59.093,3.327A4.591,4.591,0,0,0,60.177,0a4.671,4.671,0,0,0-3.068,1.578A4.368,4.368,0,0,0,56,4.8,3.864,3.864,0,0,0,59.093,3.327Z" transform="translate(0)"/></g></svg>