<svg xmlns="http://www.w3.org/2000/svg" width="241.204" height="463.771" viewBox="0 0 241.204 463.771">
  <path id="city" d="M145.716,249.5l-.006,0s0,.009,0,.013a1.488,1.488,0,0,1-.13.243l-.783-.365c-.091,1.344.974.814,1.778.909.57.3,1.089.44.325.083a.959.959,0,0,0-.325-.083c-.409-.222-.841-.516-.865-.788l0-.011c4.075,1.6,8.35.122,12.929,1.338-.4-.5-2.244-1.381-1.066-1.786,4.548-.714,7.193,1.823,11.779,3.039.207-3.1-4.962-.441-5.136-3.394a105.829,105.829,0,0,1,15.181,3.362c1.877-4.543,5.243,1.855,8.576-1.69-.315,1.522,1.342,2.073,3.152,2.114,0,.016,0,.021,0,.032l.27-.032a10.306,10.306,0,0,0,2.465-.272l-2.465.272h-.275c-.622-1.239,1.287-1.273.757-2.168,1.586,1.392,6.161,1.967,5.981-1,.414,2.867,3.4-.136,4.706,1.891a3.664,3.664,0,0,0-1.388,1.273l1.675-.8a1.6,1.6,0,0,0-.286-.475c2-1.073,4.289.6,6.8-.267-.793,1.629,1.848,1.025,3.062,1.436a3.532,3.532,0,0,0,.352.184,1.105,1.105,0,0,0-.352-.184c-.208-.127-.386-.288-.305-.447.752-1.564,2.889,1.37,4.3.443.641-.652-.158-1.666.882-1.812.024,1.283,3.831,2.778,5.242,1.206-.652.008-.663-.641-1.062-1.141,6.68,2.2,13.81-.482,20.634,2.112l-1.21-2.163c4.263-2.782,2.8,3.56,6.182,3.247,3.821-.435,7.7-1.221,11.575-1.895,1.937-.336,3.871-.645,5.8-.867.962-.111,1.922-.2,2.877-.262l1.869-.089c0,3.6-.032,455.078-.035,455.676l-.243-.089-.073-.022-.038-.011-.019-.006-.069-.005-.643-.047c1.634,1.206-1.516,1.05-1.679,2.727-1-1.1.573-1.739-1.644-2.655-3.154-.156-6.06,1.29-8.677,1.88-1.062-1.489-2.454-1.08-2.524-2.922-3.562-.107-5.546-.841-9.919-.823l-.112.635c-1.176-2.3-3.79,1.166-4.605-.16.121.812.587,1.148.47,1.785-1.048-.045-1.679,1.281-3.02,2.095-1.283-.232-1.643-2.645-.074-3.293-4.375.025-8.694-1-12.592-.641l.414,1.391c-2.158-.515-5.075-.5-6.356.716-.058-.408-.589-1.151-.245-1.61-2.359-1.733-.621,1.649-2.485.627-.167-.1-.339-.207-.5-.322l-.092-.067.092.067a5.183,5.183,0,0,0,.5.322c.527.323,1.013.631,1.1,1.221l-5.255-1.708c-.055,1.034-3.248,3.355-5.469,2.44a1.594,1.594,0,0,1,1.118-1.487l.566.221a.521.521,0,0,0-.566-.221l-1.422-.518-1.1,2.414-2.058-2.117.007-.467-.409.059.4.408-.037,2.018c-1.516-.4-2.118-2.992-3.344-2.814-4.592,1.286-3.658,1.976-6.918,3.891-.367-3.862-5.19.142-6.018-2.627-4.356,2.9-10.666,1.141-16.375,1.975l.468.341c-2.44,1.793-2.778-2.928-5.409-2.148l.659.571c-3.378,2.059-9.306.177-12.512-1.452a.95.95,0,0,1-.71,1.682c-.873-.755.85-2.7-.967-1.975a.765.765,0,0,1-.32,1.241l-1.781-1.922c-4.662,1.321-10.147,2.706-14.98,1.593-.9.681-.24,1.378-.028,2.04-3.833-.406-7.644-2.015-11.1-2.365l-.351,2.227c-1.7,0-1.05-3.412-3.255-1.427-.492.3,1.458.144,2.063,1.133-3.4,1.692-2.009-2.173-5.259-1.924l.85,2.515c-2.492,1.488-2.843-1.326-3.749-2.808-3.5-2.963-2.486,4.851-7.246,2.63-.754-1.237.249-1.829-.5-3.065-3.348.649-3.747-1.13-7.1-.485-1.791,3.753-2.968,3.053-2.957,3.006-.014.048-6.081.014-7.932-1.909.3.5.044.644-.054,1.043-1.305.094-2.648-2.127-4.4-2.768-.954,1.239.552,3.707-2.252,3.019-.5-1.388.747-3.809-1.6-3.756,0,0,2.052,1.137.954,2.119-2.307-.975-.747.449-2.847,2.031-1.2-1.971-2.3.694-2.554-2.516-.748,2.129-.547,1.34-2,2.872.645-1.733-2.747-1.729-2.651-3.809-.6,2.378,2.454,2.917.557,5.392-1.3-1.583-3.71-2.17-3.909-4.736-.964.569-1.416,1.466-2.853,1.756a.178.178,0,0,0-.14.026l.14-.026c.21.045.433.414.558.614-2.75-1.724-6.806,0-8.359-3.1.555,3.705-5.842.452-3.744,3.908a6.4,6.4,0,0,1-3.35-2.386c0-.113.016-.2,0-.328-.139.011-.107.142,0,.328.123,2.886-2.851.73-4.1,2.442-.62-1.558-2.545-1.117-3.8-1.916-.048-.036-.1-.07-.15-.1.049.036.1.07.15.1a1.329,1.329,0,0,1,.506,1.528c-1.4-1.185-1.055-.055-2.252,1.331-1.9-.888.349-2.21-.8-3.563-1.648.659-.249,1.833-.547,3.025l-2.456-2.912a2.5,2.5,0,0,0-1.048,1.629c-.848-.844-1.6-2.076-2.8-.685l2.105.093-.806,1.479-2.5-1.865a5.382,5.382,0,0,0-1.873,1.732l-.253.341c.043-15.814.172-424.7,0-462.481h2.709c.1.114.238.133.446,0h.692a1.738,1.738,0,0,1,.028.808,1.156,1.156,0,0,0-.333.47.889.889,0,0,0,.333-.47c.226-.232.535-.509.825-.808H34.63c-.24.2-.388.4-.569,1.221l4.23.824c.472,0-.349-.775-.943-.786A5.176,5.176,0,0,1,40.054,246h1.6c3.525.429,7.161,3.224,11.044,0h.19c-.381,1.032.552.964,1.054,1.794,1.816-.406,4.561-.069,6.241-.865l-.535-.892c4.321,1.092,7.3,2.5,10.152,1.946.139.387-.021-1.284-.537-1.54.9.7,1.886.147,2.758-.442h2.372c.028.11.055.227.077.362l-.776.272c4.164-.579,8.772,1.924,13.075,2.37,1.008-2.075-2.48-.217-1.6-2.678,2.985-.817,6.012.933,9.26.236-.444-.211-.43-.421-.564-.562h1.354c-.038.651-.767,1.88.918,1.693-.136-.944-.033-1.236.695-1.693h.254l.744,1.543A3.106,3.106,0,0,0,97.771,246h.155c1.463,1.419,4.529.373,5.4,2.228A8.371,8.371,0,0,0,103.16,246h3.512c.022,1.043.573,1.007,1.283.866a1.956,1.956,0,0,0,1.855-.032,2.924,2.924,0,0,0-1.855.032,6.956,6.956,0,0,1-1.278-.866h4.539a1.924,1.924,0,0,0,.816.932l-2.074.928,3.664.464-1.453-1.007c1.681-.8,3.409.981,5.365.939l-.9,1.187,2.232.729c.22-2.445,2.857-.55,1.632-3.376,4.086-1.2,6.734,1.855,10.424,2.139a.84.84,0,0,0,.177.013c-.06,0-.118-.009-.177-.013-.43-.082-.238-.528-.357-.879,2.2-.55,3.53.72,4.85,1.986-.27-.764-.8-1.015-.805-1.666,2.607-.031,1.585,1.4,4.463,2.129-.8-1.022-.547-1.546.238-1.807a1.786,1.786,0,0,0,1.071,1.786c-1.834-4.116,1.747-2.684,2.063-4.482h1.014C144.653,247.008,146.217,248.276,145.716,249.5Zm-58.06-2.313.545,1.535,1.146-1.041Zm7.422,460.848a6.081,6.081,0,0,1,.716-1.654C93.038,706.259,95.317,706.726,95.078,708.034Z" transform="translate(-28.014 -246)" fill="#f77e0b"/>
</svg>
