<svg xmlns="http://www.w3.org/2000/svg" width="16" height="17.067" viewBox="0 0 16 17.067"><defs><style>.a{fill:#ececec;}</style></defs><g transform="translate(-16.014 -0.001)"><g transform="translate(17.09 0)"><g transform="translate(0 0)"><path class="a" d="M50.417.273A2.167,2.167,0,0,0,48.3.279l7.776,7.173L58.69,4.84Z" transform="translate(-48.302 0)"/></g></g><g transform="translate(16.014 1.012)"><g transform="translate(0)"><path class="a" d="M16.313,30.365a1.989,1.989,0,0,0-.3,1.042V44.363a2,2,0,0,0,.278,1.017l7.82-7.82Z" transform="translate(-16.014 -30.365)"/></g></g><g transform="translate(25.65 5.376)"><g transform="translate(0)"><path class="a" d="M310.394,162.652l-2.492-1.375-2.8,2.8,3.431,3.165,1.861-1.027a2.016,2.016,0,0,0,0-3.562Z" transform="translate(-305.102 -161.277)"/></g></g><g transform="translate(17.055 8.93)"><g transform="translate(0)"><path class="a" d="M55.087,267.9l-7.841,7.841a2.162,2.162,0,0,0,2.15.02l8.893-4.908Z" transform="translate(-47.246 -267.901)"/></g></g></g></svg>