<svg xmlns="http://www.w3.org/2000/svg" xmlns:xlink="http://www.w3.org/1999/xlink" width="241.623" height="167.28" viewBox="0 0 241.623 167.28">
  <defs>
    <linearGradient id="linear-gradient" x1="0.5" x2="0.5" y2="1" gradientUnits="objectBoundingBox">
      <stop offset="0" stop-color="#1b191c" stop-opacity="0"/>
      <stop offset="1" stop-color="#1b191c"/>
    </linearGradient>
  </defs>
  <path id="gradient_bg" d="M152.107,247.262h.006a.042.042,0,0,1,0,0,.754.754,0,0,0,.13.088l.785-.132c.091.485-.976.294-1.781.328-.571.108-1.091.159-.326.03a2.439,2.439,0,0,1,.326-.03c.41-.08.842-.186.866-.284l0,0c-4.082.579-8.365.044-12.952.483.4-.182,2.248-.5,1.068-.644-4.556-.257-7.206.657-11.8,1.1-.208-1.118,4.971-.159,5.145-1.224-4.842.25-9.824.639-15.208,1.213-1.88-1.639-5.252.669-8.591-.61.316.549-1.345.748-3.157.762,0,.006,0,.008,0,.012l-.271-.012c-.882,0-1.779-.033-2.469-.1l2.469.1h.275c.623-.447-1.29-.459-.758-.782-1.588.5-6.171.709-5.991-.359-.415,1.034-3.408-.049-4.714.682a4.759,4.759,0,0,1,1.391.459l-1.677-.288a.97.97,0,0,1,.287-.171c-2-.387-4.3.216-6.808-.1.795.588-1.851.37-3.068.518-.123.027-.256.05-.352.066a2.227,2.227,0,0,1,.352-.066c.208-.046.386-.1.306-.161-.753-.564-2.894.494-4.312.16-.642-.235.159-.6-.884-.654-.024.463-3.837,1-5.251.435.653,0,.664-.231,1.063-.411-6.692.794-13.834-.174-20.669.762l1.212-.78c-4.27-1-2.805,1.284-6.193,1.171-3.828-.157-7.716-.44-11.6-.683-1.94-.121-3.878-.233-5.805-.313q-1.446-.06-2.882-.094L28.39,247.7c0,1.3.032,164.145.035,164.361l.243-.032.073-.008.038,0,.019,0,.069,0,.644-.017c-1.637.435,1.519.379,1.682.984,1-.4-.574-.627,1.647-.958a81.67,81.67,0,0,1,8.693.678c1.063-.537,2.459-.389,2.528-1.054,3.569-.039,5.555-.3,9.936-.3l.112.229c1.178-.83,3.8.421,4.613-.058-.122.293-.588.414-.471.644l1.99-.267c-.94.251-1.476,1.037.161,1.126,1.7-.583-.469-.4.361-.873l.514.77c1.285-.084,1.646-.954.074-1.188,4.382.009,8.709-.359,12.614-.231l-.415.5a20.4,20.4,0,0,1,6.367.258c.058-.147.59-.415.245-.581,2.363-.625.622.595,2.49.226.168-.037.339-.075.5-.116l.092-.024-.092.024c-.192.049-.358.087-.5.116-.527.116-1.015.228-1.1.44l5.264-.616c.055.373,3.254,1.21,5.479.88.086-.209-.552-.493-1.12-.536l-.567.08a1.107,1.107,0,0,1,.567-.08l1.425-.187,1.1.871,2.062-.764-.007-.168.41.021-.4.147.037.728c1.519-.145,2.122-1.079,3.35-1.015,4.6.464,3.664.713,6.93,1.4.368-1.393,5.2.051,6.029-.948,4.364,1.047,10.685.412,16.4.712l-.469.123c2.444.647,2.783-1.056,5.418-.775l-.66.206c3.384.743,9.322.064,12.534-.524-.657.208-.324.655.712.607.875-.272-.851-.975.969-.712-.449.134-.094.44.321.448l1.784-.693a85.217,85.217,0,0,0,15.007.575c.9.246.24.5.028.736,3.839-.146,7.658-.727,11.124-.853l.352.8c1.7,0,1.051-1.231,3.261-.515.493.108-1.46.052-2.066.409,3.41.61,2.013-.784,5.269-.694l-.851.907c2.5.537,2.848-.478,3.755-1.013,3.506-1.069,2.491,1.75,7.259.949.755-.446-.25-.66.506-1.106,3.354.234,3.753-.407,7.116-.175,1.794,1.354,2.973,1.1,2.962,1.084.014.017,6.092.005,7.946-.689-.3.18-.044.232.054.376,1.308.034,2.653-.767,4.406-1,.956.447-.553,1.337,2.256,1.089.5-.5-.749-1.374,1.6-1.355,0,0-2.055.41-.956.764,2.311-.352.749.162,2.852.733,1.205-.711,2.3.25,2.559-.907.749.768.548.483,2,1.036-.647-.625,2.751-.624,2.656-1.374.6.858-2.458,1.052-.558,1.945,1.3-.571,3.717-.783,3.916-1.708a14.1,14.1,0,0,0,2.857.633.458.458,0,0,1,.14.009l-.14-.009a1.456,1.456,0,0,0-.559.221c2.755-.622,6.818,0,8.373-1.12-.556,1.337,5.852.163,3.75,1.41a10.177,10.177,0,0,0,3.356-.861c0-.041-.016-.071,0-.118.139,0,.107.051,0,.118-.124,1.041,2.856.264,4.1.881.621-.562,2.549-.4,3.81-.691.048-.013.1-.025.15-.037-.049.013-.1.025-.15.037-.458.123-.686.295-.507.551,1.407-.427,1.057-.02,2.256.48,1.908-.32-.35-.8.8-1.285,1.651.238.25.661.548,1.091l2.46-1.05a1.648,1.648,0,0,1,1.05.588,3.309,3.309,0,0,1,2.8-.247l-2.109.034.807.533,2.506-.673a6.726,6.726,0,0,1,1.876.625l-.032-1.592.286,1.715c-.043-5.7-.172-153.188,0-166.816H267.3a.739.739,0,0,1-.446,0h-.693c-.051.1-.1.2-.028.292.175.066.319.126.334.17a.635.635,0,0,1-.334-.17c-.227-.084-.536-.184-.826-.292h-1.921a.845.845,0,0,1,.57.44l-4.238.3c-.473,0,.35-.28.945-.283a11.041,11.041,0,0,0-2.711-.454h-1.6c-3.531.155-7.174,1.163-11.063,0H245.1c.381.372-.553.348-1.055.647-1.819-.147-4.569-.025-6.252-.312l.536-.322c-4.329.394-7.312.9-10.169.7-.139.14.021-.463.538-.555a5.552,5.552,0,0,1-2.763-.16h-2.376a.792.792,0,0,0-.077.131l.777.1c-4.171-.209-8.787.694-13.1.855-1.01-.749,2.485-.078,1.6-.966-2.99-.295-6.022.337-9.276.085a1.293,1.293,0,0,0,.565-.2H202.7c.038.235.768.678-.919.611.136-.34.033-.446-.7-.611h-.255l-.745.556c-.1-.071-.112-.345.054-.556h-.155c-1.465.512-4.537.135-5.4.8-.168-.129.1-.5.161-.8h-3.518c-.022.376-.574.363-1.285.312a5.156,5.156,0,0,1-1.859-.012,7.949,7.949,0,0,1,1.859.012,11.956,11.956,0,0,0,1.28-.312h-4.547a1.809,1.809,0,0,1-.817.336l2.078.335-3.671.167,1.456-.363c-1.684-.289-3.415.354-5.374.339l.9.428L179,247.5c-.22-.882-2.862-.2-1.635-1.218-4.093-.434-6.745.669-10.443.771-.05,0-.109.005-.178,0l.178,0c.431-.03.238-.19.357-.317a10.347,10.347,0,0,0-4.858.716c.27-.276.8-.366.806-.6-2.612-.011-1.588.5-4.471.768.8-.369.548-.558-.238-.652.121.324-.543.553-1.073.644,1.837-1.485-1.75-.968-2.066-1.617h-1.015C153.172,246.363,151.605,246.821,152.107,247.262Zm58.161-.834-.546.554-1.148-.375Zm-7.435,166.226a2.324,2.324,0,0,0-.718-.6C204.876,412.014,202.593,412.182,202.833,412.654Z" transform="translate(-28.391 -246)" fill="url(#linear-gradient)"/>
</svg>
