<svg xmlns="http://www.w3.org/2000/svg" xmlns:xlink="http://www.w3.org/1999/xlink" width="710" height="855.509" viewBox="0 0 710 855.509">
  <defs>
    <filter id="Screenshot_4" x="0" y="0" width="710" height="855.509" filterUnits="userSpaceOnUse">
      <feOffset dy="5" input="SourceAlpha"/>
      <feGaussianBlur stdDeviation="25" result="blur"/>
      <feFlood flood-color="#110f10"/>
      <feComposite operator="in" in2="blur"/>
      <feComposite in="SourceGraphic"/>
    </filter>
  </defs>
  <g transform="matrix(1, 0, 0, 1, 0, 0)" filter="url(#Screenshot_4)">
    <path id="Screenshot_4-2" data-name="Screenshot_4" d="M315.171,251.3l.015,0c0,.006,0,.013,0,.02a2.181,2.181,0,0,0,.3.368l1.816-.552c.211,2.035-2.258,1.232-4.121,1.377-1.321.453-2.524.667-.754.125a3.209,3.209,0,0,1,.754-.125c.948-.336,1.949-.782,2.005-1.193l-.011-.016c-9.445,2.429-19.356.184-29.971,2.025.922-.763,5.2-2.091,2.472-2.7-10.542-1.08-16.674,2.759-27.305,4.6-.481-4.694,11.5-.668,11.906-5.139-11.206,1.048-22.734,2.68-35.191,5.09-4.35-6.877-12.153,2.808-19.88-2.559.731,2.3-3.112,3.138-7.306,3.2-.011.025,0,.031-.011.049l-.627-.049a36.126,36.126,0,0,1-5.714-.411l5.714.411h.637c1.441-1.876-2.985-1.926-1.754-3.281-3.676,2.108-14.281,2.978-13.865-1.508-.96,4.341-7.886-.206-10.909,2.864a8.278,8.278,0,0,1,3.218,1.926L182.7,254.6a2.517,2.517,0,0,1,.663-.719c-4.636-1.624-9.941.905-15.754-.4,1.839,2.467-4.283,1.552-7.1,2.174-.284.114-.592.211-.815.279a3.206,3.206,0,0,1,.815-.279c.481-.192.894-.435.707-.677-1.744-2.368-6.7,2.074-9.978.67-1.485-.988.367-2.523-2.044-2.743-.055,1.942-8.88,4.205-12.15,1.826,1.511.012,1.538-.971,2.461-1.726-15.485,3.333-32.012-.729-47.83,3.2l2.8-3.275c-9.882-4.212-6.491,5.389-14.33,4.916-8.858-.658-17.854-1.848-26.833-2.869-4.489-.509-8.974-.976-13.434-1.313q-3.345-.253-6.67-.4l-4.333-.135q.014,8.168.028,16.191.027,13.647.082,27.108c.194,7.6.237-4.392.513-5.671-.082,9.013-.634,11.579-.285,23.8l.356-2.733c-.965,47.318.653,136.657-.859,171.712.57,45.286-.409,77.181.446,132.173-.317,17.356-.614-20.165-.7,3.288l.553,50.618c.948,49.356-1.231,128.51-.474,189.254l-.053-2.634c-.246-1.43-.545,11.3-.461,21.277.175,3.478.266-3.235.476-9.2.159,20.973.26,35.7.328,48.617.034,6.458.061,12.462.082,18.568q0,1.145.008,2.295l0,.577v.35l0,.324.014,1.289c.008.836.016,1.7.024,2.6l.563-.134.168-.033.087-.017.044-.009.159-.008,1.491-.072c-3.788,1.826,3.515,1.589,3.892,4.128,2.31-1.658-1.327-2.632,3.811-4.019,7.312-.236,14.047,1.953,20.115,2.845,2.461-2.254,5.69-1.634,5.851-4.423,8.258-.161,12.855-1.273,22.992-1.246l.26.961c2.727-3.484,8.786,1.765,10.676-.242-.281,1.229-1.361,1.738-1.091,2.7l4.605-1.122c-2.175,1.053-3.416,4.353.372,4.726,3.942-2.445-1.084-1.666.836-3.665l1.189,3.231c2.974-.351,3.809-4,.172-4.984,10.141.039,20.153-1.508,29.188-.971l-.96,2.106c5-.779,11.763-.762,14.734,1.085.135-.618,1.365-1.742.567-2.438,5.467-2.623,1.439,2.5,5.762.948.388-.155.785-.313,1.164-.487l.214-.1c-.07.034-.142.068-.214.1-.444.206-.829.367-1.164.487-1.221.489-2.349.955-2.545,1.848l12.181-2.584c.127,1.566,7.53,5.078,12.679,3.692.2-.877-1.278-2.069-2.591-2.25l-1.312.334a1.563,1.563,0,0,1,1.312-.334l3.3-.785,2.539,3.655,4.771-3.205-.015-.707.949.089-.934.618.086,3.055c3.514-.609,4.909-4.529,7.751-4.26,10.643,1.946,8.479,2.992,16.037,5.889.851-5.846,12.03.215,13.95-3.977,10.1,4.394,24.725,1.728,37.959,2.989l-1.084.516c5.656,2.714,6.439-4.432,12.537-3.251l-1.527.865c7.831,3.117,21.571.269,29-2.2-1.519.873-.75,2.749,1.647,2.545,2.024-1.143-1.969-4.093,2.243-2.989-1.04.563-.218,1.846.742,1.879l4.129-2.91c10.808,2,23.522,4.1,34.726,2.412,2.078,1.031.556,2.086.065,3.088,8.885-.615,17.72-3.05,25.741-3.58l.814,3.372c3.929,0,2.433-5.165,7.545-2.159,1.14.454-3.379.218-4.782,1.715,7.891,2.562,4.657-3.29,12.192-2.913l-1.969,3.809c5.776,2.252,6.59-2.007,8.69-4.251,8.112-4.486,5.763,7.344,16.8,3.982,1.748-1.873-.578-2.77,1.17-4.64,7.762.982,8.685-1.71,16.467-.734,4.152,5.681-3.96,0,.559,5.311l-5.914-1.286c5.1,2.994-4.636.76-3.837,4.127,3.822.974,9.634-1.876,14.622-2.994,0,2.546-5.794.295-3.491,3.735l2.557-1.039c-.7.748-.825,1.714-2.321,1.643.919,2.394,3.008.143,5.448.08a9.8,9.8,0,0,0-.678-4.812,1.645,1.645,0,0,1-.09-.217c.032.072.061.144.09.217a2.3,2.3,0,0,0,.563.694c5-3.658,13.444-.888,17.734-3.8-.69.755-.1.975.124,1.578,3.026.143,6.138-3.219,10.2-4.19,2.212,1.876-1.28,5.611,5.22,4.57,1.155-2.1-1.733-5.766,3.713-5.686,0,0-4.755,1.721-2.212,3.208,5.347-1.477,1.733.68,6.6,3.075,2.79-2.983,5.332,1.05,5.922-3.809,1.733,3.222,1.267,2.029,4.631,4.348-1.5-2.624,6.367-2.617,6.146-5.766,1.381,3.6-5.688,4.415-1.29,8.162,3.012-2.4,8.6-3.285,9.061-7.169,2.235.86,3.283,2.219,6.612,2.658a.6.6,0,0,1,.325.039c-.111-.011-.219-.025-.325-.039a2.824,2.824,0,0,0-1.294.93c6.375-2.61,15.777,0,19.376-4.7-1.286,5.609,13.542.685,8.679,5.916a16.163,16.163,0,0,0,7.766-3.612,3.537,3.537,0,0,1,0-.5c.323.017.247.216,0,.5-.286,4.37,6.608,1.106,9.5,3.7,1.438-2.359,5.9-1.691,8.818-2.9.111-.054.226-.106.348-.156-.113.056-.23.107-.348.156-1.061.515-1.589,1.237-1.174,2.313,3.255-1.793,2.445-.083,5.22,2.014,4.415-1.344-.809-3.346,1.857-5.393,3.82,1,.578,2.774,1.267,4.579l5.693-4.408a4.139,4.139,0,0,1,2.43,2.467c1.965-1.278,3.72-3.142,6.488-1.036l-4.88.141,1.868,2.239,5.8-2.823a11.909,11.909,0,0,1,4.341,2.621l-.075-6.68.661,7.2V928.093c-.1-5.923.05-13.548-.079-16.264.026.182.053.253.079.234V888.517c-.306-7.169-.258-10.951-.751-20.116.264-3.359.52-2.66.751.182V850.6c-.421-9.967-.561-38.155-.7-56.545.214,6.147.385,20.933.7,17.8v-4c-.186-16.855-.513-33.048-.681-49.425-.081-2.618-.143-5.48-.175-8.922a5.453,5.453,0,0,0,.1.541c-.013-1.918-.024-3.883-.03-5.93-.023-2.024-.024-4.643-.005-8.525-.006,2.862,0,5.717.005,8.525a46.971,46.971,0,0,0,.242,5.3c-.049,1.264-.128,1.149-.212.632.018,2.824.042,5.557.07,8.381.186,6.127.467,10.167.681,13.313V756.322c-.133-2.9-.3-5.488-.32-12.59.125-3.216.225-5.852.32-6.834v-94.59c-.158-7.934-.307-17.128-.427-29.561-.914-45.126.56-87.5-.106-118.867-.245-1.713-.431,23.454-.584,3.1.49,3.532.314-12.226.509-13.215-.715-22.091.159-32.573-.33-48.225.17,3.662.359-9.194.527-17.652a12.668,12.668,0,0,1-.241-1.9l.245,1.705c0,.06,0,.114,0,.19.252,1.026.336-3.026.411-5.791V353.689c-.111-3.769-.262-7.5-.473-11.2l-.17,8.473.284-33.266-.014,1.416c-.032,4.491-.086,10.109-.2,17.82l.2-17.82c.087-12.646-.025-15.916.373-29.673V246h-6.279a.993.993,0,0,1-1.033,0h-1.6a1.753,1.753,0,0,0-.064,1.223c.406.279.739.531.773.713a1.515,1.515,0,0,1-.773-.713c-.524-.351-1.24-.77-1.912-1.223h-4.445c.555.3.9.6,1.32,1.848l-9.806,1.246c-1.1-.007.81-1.174,2.186-1.189A15.53,15.53,0,0,0,560.1,246h-3.7c-8.171.649-16.6,4.88-25.6,0h-.441c.883,1.563-1.28,1.46-2.442,2.715-4.209-.615-10.573-.1-14.468-1.309l1.241-1.351c-10.017,1.653-16.921,3.791-23.532,2.946-.323.586.049-1.943,1.244-2.331-2.1,1.064-4.373.221-6.393-.67h-5.5a4.477,4.477,0,0,0-.179.548l1.8.411c-9.653-.876-20.333,2.912-30.308,3.588-2.336-3.141,5.749-.329,3.708-4.054-6.919-1.237-13.935,1.412-21.465.358,1.03-.319,1-.636,1.308-.851h-3.138c.088.985,1.778,2.847-2.127,2.563.315-1.428.076-1.871-1.61-2.562h-.589l-1.724,2.335a3.138,3.138,0,0,1,.124-2.335h-.359c-3.391,2.148-10.5.565-12.507,3.373-.389-.539.228-2.078.373-3.373h-8.142c-.051,1.579-1.329,1.524-2.973,1.311a6.7,6.7,0,0,1-4.3-.048,10.224,10.224,0,0,1,4.3.048A18.283,18.283,0,0,0,405.666,246H395.144a3.7,3.7,0,0,1-1.891,1.41l4.808,1.4-8.494.7,3.369-1.525c-3.9-1.213-7.9,1.484-12.436,1.421l2.077,1.8-5.175,1.1c-.51-3.7-6.622-.833-3.783-5.11-9.472-1.823-15.609,2.807-24.165,3.238a2.948,2.948,0,0,1-.411.02c.138,0,.274-.013.411-.02,1-.124.552-.8.827-1.33-5.107-.833-8.183,1.09-11.242,3.006.625-1.157,1.845-1.537,1.866-2.522-6.044-.046-3.674,2.115-10.345,3.222,1.845-1.547,1.267-2.341-.551-2.736.281,1.358-1.257,2.321-2.482,2.7,4.25-6.231-4.05-4.063-4.781-6.785h-2.349C317.635,247.526,314.01,249.446,315.171,251.3Zm272,589.821c.062.738.066,2.8.066,5.184l.142,10.909c-.161-2.475-.143-7.134-.142-10.909l-.066-5.184c-.023-.358-.053-.632-.091-.556l.023-4.666Zm.134-172.451c.344,8.831-.448,31.409-.145,37.506l.2,1.469a4.669,4.669,0,0,1-.2-1.469l-.162-1.21C586.872,691.992,587.261,677.962,587.307,668.667ZM449.758,247.8l-1.264,2.324-2.656-1.576Zm-17.2,697.637a8.041,8.041,0,0,0-1.661-2.5C437.283,942.745,432,943.453,432.553,945.432Z" transform="translate(46.99 -176)" fill="#ececec"/>
  </g>
</svg>
