<svg xmlns="http://www.w3.org/2000/svg" width="12.34" height="13.122" viewBox="0 0 12.34 13.122"><defs><style>.a{fill:#fff;}</style></defs><g transform="translate(0 0)"><path class="a" d="M2925.358,6575.318l-.042.025a8.238,8.238,0,0,0,3.179.8,9.761,9.761,0,0,0,.827-1.817,9.978,9.978,0,0,1-3.531.729C2925.648,6575.145,2925.5,6575.233,2925.358,6575.318Z" transform="translate(-2917.475 -6567.252)"/><path class="a" d="M2928.346,6567.9a8.959,8.959,0,0,0,3.058-1.075,10.227,10.227,0,0,0,.271-2.339q0-.507-.049-1A10.214,10.214,0,0,1,2928.346,6567.9Z" transform="translate(-2919.336 -6560.595)"/><path class="a" d="M2915.808,6565.186a10.159,10.159,0,0,1-5.677-1.726l-.015-.011a10.181,10.181,0,0,1-4.447-7.448,10.152,10.152,0,0,0-.669,3.635c0,.179,0,.356.014.532.006.126.015.249.027.374a9.839,9.839,0,0,0,.175,1.2c.025.117.013.073.025.117a18.871,18.871,0,0,0,2.558,1.943,11.928,11.928,0,0,1-2.333-1.119,9.6,9.6,0,0,0,1.441,2.883c.462.2,1.357.636,1.675.744a8.408,8.408,0,0,1-1.346-.311,10.222,10.222,0,0,0,4.048,3.045l.184.075c.3-.14.59-.294.872-.461a10.237,10.237,0,0,0,3.52-3.477Z" transform="translate(-2905 -6556)"/></g></svg>