<svg xmlns="http://www.w3.org/2000/svg" width="1040.517" height="434.938" viewBox="0 0 1040.517 434.938">
  <path id="Path_14" data-name="Path 14" d="M561.571,249.265l.028,0s-.006.008-.008.012a3.845,3.845,0,0,0,.559.227l3.373-.34c.391,1.255-4.2.759-7.657.849-2.455.279-4.689.411-1.4.078.431-.044.913-.068,1.4-.078,1.762-.207,3.621-.482,3.725-.735l-.02-.01c-17.55,1.5-35.964.113-55.688,1.249,1.712-.47,9.664-1.289,4.592-1.667-19.588-.666-30.982,1.7-50.735,2.837-.893-2.893,21.372-.412,22.122-3.168-20.821.646-42.241,1.652-65.388,3.138-8.083-4.24-22.582,1.731-36.938-1.577,1.359,1.421-5.782,1.934-13.574,1.973-.02.015,0,.019-.02.03l-1.164-.03c-3.79,0-7.649-.086-10.617-.254l10.617.254h1.184c2.677-1.157-5.545-1.188-3.259-2.023-6.83,1.3-26.535,1.836-25.761-.93-1.784,2.676-14.653-.127-20.27,1.765a30.74,30.74,0,0,1,5.98,1.188l-7.212-.744a5.221,5.221,0,0,1,1.233-.443c-8.614-1-18.472.558-29.272-.249,3.417,1.52-7.959.956-13.19,1.34-.528.07-1.1.13-1.514.172.4-.072.921-.128,1.514-.172.894-.119,1.661-.269,1.314-.417-3.24-1.46-12.444,1.279-18.54.413-2.76-.609.682-1.555-3.8-1.691-.1,1.2-16.5,2.592-22.576,1.126,2.808.007,2.857-.6,4.572-1.064-28.772,2.055-59.48-.449-88.872,1.971l5.212-2.019c-18.361-2.6-12.062,3.322-26.626,3.031-16.459-.406-33.175-1.139-49.857-1.768-8.341-.314-16.673-.6-24.961-.81q-6.216-.156-12.393-.245l-8.051-.083q.026,5.035.051,9.982.05,8.413.152,16.712c.36,4.683.44-2.708.954-3.5-.152,5.557-1.178,7.138-.53,14.675l.662-1.685c-1.793,29.171,1.213,84.247-1.6,105.858,1.058,27.918-.761,47.582.829,81.483-.59,10.7-1.141-12.432-1.305,2.027l1.027,31.206c1.761,30.428-2.287,79.225-.881,116.673l-.1-1.624c-.458-.882-1.013,6.964-.857,13.117.325,2.144.495-1.995.884-5.674.295,12.929.482,22.009.61,29.972.064,3.981.113,7.683.153,11.447q.007.706.015,1.415l0,.355,0,.166,0,.05.007.2.026.795c.014.516.029,1.047.045,1.605l1.047-.083.312-.02.162-.01.083-.005.3-.005,2.77-.044c-7.038,1.126,6.53.979,7.232,2.545,4.292-1.022-2.466-1.623,7.081-2.478,13.586-.146,26.1,1.2,37.375,1.754,4.572-1.389,10.572-1.007,10.871-2.727,15.344-.1,23.886-.785,42.72-.769l.482.593c5.066-2.148,16.326,1.088,19.836-.149-.523.758-2.529,1.071-2.026,1.666l8.557-.691c-4.041.649-6.347,2.683.691,2.913,7.324-1.507-2.015-1.027,1.553-2.259l2.209,1.992c5.525-.217,7.078-2.468.32-3.073,18.843.024,37.446-.93,54.234-.6l-1.784,1.3c9.3-.48,21.857-.47,27.377.668.251-.381,2.537-1.074,1.053-1.5,10.159-1.617,2.674,1.539,10.705.585.721-.1,1.458-.193,2.164-.3l.4-.062-.4.062c-.825.127-1.541.226-2.164.3-2.268.3-4.364.589-4.729,1.139l22.633-1.593c.237.965,13.991,3.131,23.558,2.277.371-.541-2.375-1.276-4.815-1.387l-2.437.206a7.662,7.662,0,0,1,2.438-.206l6.125-.484,4.718,2.253,8.865-1.976-.028-.435,1.764.055-1.735.381.16,1.883c6.53-.376,9.122-2.792,14.4-2.626,19.776,1.2,15.755,1.845,29.8,3.631,1.581-3.6,22.353.132,25.921-2.452,18.763,2.708,45.94,1.065,70.531,1.843l-2.015.318c10.509,1.673,11.964-2.732,23.3-2l-2.837.533c14.55,1.922,40.08.166,53.891-1.355-2.823.538-1.393,1.695,3.06,1.57,3.762-.7-3.659-2.524,4.167-1.843-1.932.348-.405,1.139,1.379,1.158l7.672-1.794c20.081,1.233,43.7,2.525,64.523,1.487,3.862.636,1.033,1.286.12,1.9,16.508-.379,32.925-1.88,47.829-2.207l1.513,2.079c7.3,0,4.521-3.184,14.019-1.331,2.118.279-6.279.134-8.885,1.057,14.661,1.579,8.654-2.028,22.653-1.8l-3.659,2.347c10.731,1.389,12.244-1.237,16.146-2.62,15.073-2.765,10.709,4.528,31.21,2.455,3.248-1.155-1.073-1.707,2.175-2.861,14.422.605,16.137-1.054,30.6-.452,7.715,3.5-7.358,0,1.039,3.274l-10.989-.793c9.476,1.846-8.614.469-7.129,2.545,7.1.6,17.9-1.156,27.168-1.846,0,1.57-10.766.182-6.487,2.3l4.752-.64c-1.3.461-1.533,1.056-4.312,1.013,1.707,1.476,5.588.088,10.124.049.3-.786.091-1.878-1.26-2.966a1.077,1.077,0,0,1-.168-.133c.059.045.112.089.168.133a3.909,3.909,0,0,0,1.046.428c9.287-2.255,24.979-.548,32.951-2.343-1.282.466-.188.6.231.973,5.623.088,11.405-1.985,18.946-2.583,4.11,1.157-2.377,3.459,9.7,2.818,2.146-1.3-3.219-3.555,6.9-3.506,0,0-8.836,1.061-4.11,1.977,9.935-.91,3.219.419,12.264,1.9,5.183-1.839,9.906.647,11-2.348,3.22,1.987,2.355,1.251,8.605,2.68-2.78-1.618,11.83-1.613,11.419-3.555,2.566,2.219-10.569,2.722-2.4,5.032,5.6-1.477,15.98-2.025,16.836-4.42,4.152.53,6.1,1.368,12.286,1.638a3.23,3.23,0,0,1,.6.024l-.6-.024a8.983,8.983,0,0,0-2.405.573c11.844-1.609,29.315,0,36-2.9-2.389,3.458,25.162.422,16.126,3.647a67.869,67.869,0,0,0,14.43-2.227c.02-.106-.068-.183-.006-.306.6.01.46.133.006.306-.531,2.694,12.278.682,17.65,2.279,2.671-1.454,10.961-1.043,16.384-1.788.206-.033.42-.065.647-.1-.21.034-.427.065-.647.1-1.971.317-2.951.762-2.182,1.426,6.048-1.106,4.544-.051,9.7,1.242,8.2-.828-1.5-2.062,3.451-3.325,7.1.615,1.073,1.711,2.355,2.823l10.577-2.717a8.894,8.894,0,0,1,4.515,1.521c3.651-.788,6.913-1.937,12.056-.639l-9.067.087,3.471,1.38,10.774-1.74a43.177,43.177,0,0,1,8.065,1.616l-.139-4.118,1.228,4.436V666.5c-.184-3.651.092-8.352-.147-10.026.048.112.1.156.147.144V642.105c-.569-4.419-.479-6.751-1.4-12.4.491-2.071.966-1.639,1.4.112V618.731c-.782-6.145-1.042-23.522-1.3-34.859.4,3.789.714,12.9,1.3,10.973v-2.466c-.345-10.391-.953-20.374-1.265-30.47-.15-1.614-.265-3.378-.324-5.5a1.637,1.637,0,0,0,.193.333c-.023-1.183-.044-2.394-.056-3.656-.042-1.248-.045-2.862-.01-5.256-.011,1.765,0,3.524.01,5.256a9.96,9.96,0,0,0,.45,3.266c-.092.779-.239.709-.394.389.033,1.741.078,3.426.131,5.167a67.818,67.818,0,0,0,1.265,8.208v-9.509a47.681,47.681,0,0,1-.595-7.761,41.306,41.306,0,0,1,.595-4.214V490.319c-.293-4.892-.57-10.559-.794-18.224-1.7-27.82,1.041-53.941-.2-73.28-.455-1.056-.8,14.459-1.086,1.91.911,2.178.583-7.537.946-8.147-1.329-13.619.3-20.081-.613-29.73.317,2.257.667-5.669.98-10.883a3.2,3.2,0,0,1-.448-1.169l.454,1.051c0,.038,0,.07-.006.117.468.633.625-1.866.763-3.57V312.389c-.206-2.324-.488-4.622-.878-6.906l-.317,5.223.528-20.508-.026.873c-.06,2.769-.161,6.232-.372,10.986l.372-10.986c.162-7.8-.047-9.812.693-18.293V246h-11.666a5.2,5.2,0,0,1-1.919,0h-2.981c-.218.256-.452.512-.119.754a4.617,4.617,0,0,1,1.436.439,3.551,3.551,0,0,1-1.436-.439c-.974-.216-2.3-.475-3.553-.754h-8.258a3.974,3.974,0,0,1,2.453,1.139l-18.221.769c-2.035,0,1.5-.724,4.062-.733A76.646,76.646,0,0,0,1016.671,246H1009.8c-15.183.4-30.844,3.009-47.569,0h-.82c1.64.964-2.379.9-4.538,1.674-7.82-.379-19.645-.064-26.883-.807l2.306-.833c-18.612,1.019-31.441,2.337-43.725,1.816-.6.361.091-1.2,2.312-1.437-3.9.656-8.125.137-11.879-.413H868.785a2.178,2.178,0,0,0-.332.338l3.342.254c-17.935-.54-37.78,1.8-56.315,2.212-4.341-1.937,10.683-.2,6.89-2.5-12.855-.763-25.893.871-39.883.22a8.011,8.011,0,0,0,2.431-.524h-5.831c.164.607,3.3,1.755-3.953,1.58.584-.881.142-1.154-2.992-1.58h-1.095l-3.2,1.44c-.425-.183-.482-.892.23-1.44h-.667c-6.3,1.324-19.508.348-23.238,2.08-.723-.333.424-1.281.693-2.08H729.737c-.095.973-2.469.939-5.525.808a36.654,36.654,0,0,1-7.991-.03,56.666,56.666,0,0,1,7.991.03c1.9-.193,3.688-.5,5.5-.808H710.167a10.893,10.893,0,0,1-3.514.869l8.933.866-15.783.433,6.259-.94c-7.241-.747-14.685.915-23.107.876l3.859,1.108-9.616.681c-.947-2.282-12.3-.514-7.029-3.15-17.6-1.124-29,1.731-44.9,2-.216.009-.467.014-.764.012.257,0,.509-.008.764-.012,1.853-.077,1.026-.493,1.536-.82a71.573,71.573,0,0,0-20.889,1.853c1.161-.713,3.428-.948,3.467-1.555-11.231-.028-6.827,1.3-19.222,1.986,3.428-.954,2.355-1.443-1.024-1.686.522.837-2.335,1.431-4.612,1.667,7.9-3.841-7.525-2.5-8.884-4.183h-4.366C566.15,246.941,559.414,248.124,561.571,249.265Zm505.4,363.618a20.907,20.907,0,0,1,.124,3.2l.263,6.725a45.154,45.154,0,0,1-.263-6.725l-.124-3.2c-.043-.221-.1-.389-.168-.343l.043-2.877Zm.249-106.314c.639,5.444-.833,19.363-.27,23.122l.379.906c-.177-.094-.3-.413-.379-.906l-.3-.746C1066.41,520.949,1067.132,512.3,1067.218,506.57ZM811.642,247.107l-2.349,1.433-4.935-.971ZM779.675,677.192a10.412,10.412,0,0,0-3.085-1.543C788.463,675.536,778.645,675.972,779.675,677.192Z" transform="translate(-28.014 -246)" fill="#f77e0b"/>
</svg>
