<svg xmlns="http://www.w3.org/2000/svg" width="958.505" height="597.154" viewBox="0 0 958.505 597.154">
  <path id="menu" d="M520.283,250.5l.026,0a.143.143,0,0,1-.007.017,3.03,3.03,0,0,0,.515.312l3.112-.469c.361,1.728-3.871,1.046-7.065,1.169-2.265.385-4.326.566-1.293.107a10.734,10.734,0,0,1,1.293-.107c1.625-.285,3.341-.664,3.437-1.013l-.019-.014c-16.192,2.063-33.181.156-51.378,1.72,1.58-.648,8.916-1.776,4.237-2.3-18.072-.917-28.584,2.343-46.809,3.907-.824-3.986,19.718-.567,20.411-4.364-19.21.89-38.972,2.276-60.328,4.323-7.457-5.84-20.834,2.385-34.08-2.173,1.254,1.957-5.335,2.664-12.524,2.717-.018.021,0,.027-.018.042l-1.074-.042c-3.5,0-7.057-.119-9.8-.349l9.8.349h1.093c2.47-1.593-5.116-1.636-3.007-2.787-6.3,1.79-24.481,2.528-23.768-1.281-1.646,3.686-13.519-.175-18.7,2.432a20.4,20.4,0,0,1,5.517,1.636l-6.654-1.025a3.953,3.953,0,0,1,1.137-.611c-7.947-1.379-17.042.769-27.007-.343,3.152,2.094-7.343,1.317-12.17,1.846-.487.1-1.015.179-1.4.236a9.742,9.742,0,0,1,1.4-.236c.825-.163,1.532-.37,1.213-.575-2.989-2.011-11.481,1.761-17.106.569-2.546-.839.629-2.142-3.5-2.329-.095,1.649-15.223,3.571-20.829,1.551,2.591.01,2.636-.825,4.218-1.466-26.546,2.831-54.877-.619-81.994,2.716l4.808-2.781c-16.94-3.577-11.128,4.576-24.566,4.175-15.185-.559-30.608-1.57-46-2.436-7.7-.432-15.383-.829-23.029-1.115q-5.735-.215-11.434-.337l-7.428-.115c.016,4.624.126,585.015.141,585.784.251-.03,1.662-.168,1.753-.17l2.555-.061c-6.494,1.551,6.025,1.349,6.673,3.506,3.96-1.408-2.275-2.235,6.533-3.413,12.534-.2,24.081,1.659,34.483,2.416,4.219-1.914,9.753-1.388,10.03-3.756,14.156-.137,22.038-1.081,39.415-1.059l.445.816c4.674-2.958,15.062,1.5,18.3-.206-.482,1.044-2.333,1.476-1.87,2.294l7.894-.952c-3.729.894-5.856,3.7.637,4.013,6.757-2.076-1.859-1.414,1.433-3.112l2.038,2.744c5.1-.3,6.531-3.4.3-4.233,17.385.033,34.548-1.281,50.037-.825l-1.646,1.789c8.576-.662,20.165-.647,25.258.921.232-.524,2.341-1.48.972-2.07,9.373-2.227,2.467,2.12,9.877.806.665-.132,1.345-.266,2-.414l.366-.085-.366.085c-.761.175-1.422.311-2,.414-2.092.414-4.027.811-4.363,1.569l20.882-2.195c.218,1.33,12.908,4.312,21.735,3.136.342-.745-2.191-1.757-4.442-1.911l-2.249.284a4.84,4.84,0,0,1,2.249-.284l5.651-.666,4.353,3.1,8.179-2.722-.026-.6,1.627.075-1.6.524.148,2.594c6.025-.518,8.416-3.846,13.287-3.618,18.246,1.653,14.536,2.541,27.491,5,1.459-4.965,20.623.182,23.915-3.377,17.311,3.731,42.385,1.467,65.073,2.538l-1.859.438c9.7,2.3,11.039-3.764,21.493-2.761l-2.617.734c13.424,2.647,36.979.228,49.721-1.867-2.6.741-1.285,2.335,2.823,2.162,3.47-.97-3.376-3.476,3.844-2.539-1.783.479-.374,1.568,1.272,1.6l7.078-2.471c18.528,1.7,40.323,3.478,59.53,2.048,3.563.876.953,1.772.111,2.623,15.231-.522,30.377-2.59,44.128-3.04l1.4,2.863c6.736,0,4.171-4.386,12.935-1.834,1.954.385-5.793.185-8.2,1.456,13.527,2.175,7.984-2.794,20.9-2.473l-3.376,3.234c9.9,1.913,11.3-1.7,14.9-3.61,13.906-3.809,9.88,6.237,28.795,3.381,3-1.591-.99-2.352,2.006-3.94,13.306.834,14.889-1.452,28.229-.623,7.118,4.825-6.789,0,.959,4.51L700.6,839.536c8.742,2.543-7.947.646-6.578,3.505,6.551.826,51.675-3.04,59.03-5.513-1.182.642-.174.828.213,1.34,5.188.121,10.523-2.734,17.48-3.559,3.792,1.593-2.193,4.765,8.948,3.881,1.98-1.784-2.97-4.9,6.365-4.829,0,0-8.152,1.462-3.792,2.724,9.166-1.254,2.97.578,11.315,2.611,4.782-2.533,9.14.892,10.151-3.234,2.97,2.736,2.173,1.723,7.939,3.692-2.565-2.229,10.915-2.222,10.536-4.9,2.368,3.057-9.751,3.749-2.212,6.931,5.164-2.035,14.744-2.789,15.534-6.088,3.831.731,5.628,1.884,11.335,2.257a2.013,2.013,0,0,1,.557.033q-.285-.015-.557-.033a6.156,6.156,0,0,0-2.219.789c10.928-2.216,27.046,0,33.216-3.99-2.2,4.763,23.215.582,14.878,5.024,4.563-.154,11.752-2.179,13.314-3.067.018-.146-.063-.253-.005-.421.553.014.424.183.005.421-.49,3.711,11.328.939,16.284,3.139,2.465-2,10.113-1.436,15.116-2.464.19-.046.387-.09.6-.133-.194.047-.394.09-.6.133-1.818.437-2.723,1.05-2.013,1.964,5.58-1.523,4.192-.07,8.948,1.71,7.568-1.141-1.388-2.841,3.183-4.58,6.549.847.99,2.356,2.173,3.889l9.759-3.743a6.732,6.732,0,0,1,4.166,2.095c3.368-1.085,6.378-2.668,11.123-.88l-8.366.12,3.2,1.9,9.941-2.4a28.779,28.779,0,0,1,7.441,2.226l-.128-5.673,1.133,6.111c-.17-20.329-.682-545.965,0-594.533H977.25a3.245,3.245,0,0,1-1.771,0h-2.75c-.2.352-.417.705-.11,1.039a3.386,3.386,0,0,1,1.324.6,2.619,2.619,0,0,1-1.324-.6c-.9-.3-2.126-.654-3.278-1.039h-7.619a3.337,3.337,0,0,1,2.263,1.57l-16.811,1.059c-1.877-.006,1.388-1,3.747-1.01A48.324,48.324,0,0,0,940.167,246h-6.341c-14.008.551-28.458,4.144-43.888,0h-.757c1.513,1.327-2.195,1.24-4.187,2.306-7.215-.522-18.125-.089-24.8-1.112l2.128-1.147c-17.172,1.4-29.008,3.219-40.341,2.5-.553.5.084-1.65,2.133-1.979-3.6.9-7.5.188-10.96-.569h-9.426a2.786,2.786,0,0,0-.306.466l3.084.349c-16.548-.744-34.857,2.473-51.957,3.046-4.005-2.668,9.856-.279,6.357-3.443-11.86-1.051-23.889,1.2-36.8.3a5.476,5.476,0,0,0,2.243-.722h-5.379c.151.836,3.047,2.417-3.647,2.176.539-1.213.131-1.589-2.76-2.176h-1.01l-2.955,1.983c-.392-.252-.444-1.229.212-1.983h-.615c-5.813,1.824-18,.48-21.44,2.865-.667-.458.391-1.764.64-2.865H675.436c-.087,1.341-2.278,1.294-5.1,1.113a22.732,22.732,0,0,1-7.373-.042,35.071,35.071,0,0,1,7.373.042A51.9,51.9,0,0,0,675.417,246H657.381a7.6,7.6,0,0,1-3.242,1.2l8.242,1.192-14.562.6,5.775-1.3c-6.681-1.03-13.548,1.261-21.319,1.207l3.56,1.526-8.872.937c-.874-3.143-11.352-.708-6.485-4.34-16.237-1.548-26.759,2.384-41.425,2.749-.2.012-.431.019-.7.017.237,0,.47-.011.7-.017,1.709-.106.946-.678,1.417-1.129-8.756-.708-14.027.926-19.272,2.553,1.072-.983,3.162-1.305,3.2-2.142-10.362-.039-6.3,1.8-17.735,2.736,3.163-1.314,2.172-1.988-.945-2.323.482,1.153-2.154,1.971-4.255,2.3,7.287-5.291-6.943-3.45-8.2-5.761h-4.028C524.508,247.3,518.294,248.926,520.283,250.5ZM751,247.524l-2.167,1.974-4.553-1.338Z" transform="translate(-29.509 -246)" fill="#f77e0b"/>
</svg>
