<svg xmlns="http://www.w3.org/2000/svg" width="1040.517" height="526.084" viewBox="0 0 1040.517 526.084">
  <path id="Path_14" data-name="Path 14" d="M561.571,249.95l.028,0s-.006.01-.008.015a3.5,3.5,0,0,0,.559.274l3.373-.412c.391,1.518-4.2.919-7.657,1.027-2.455.338-4.689.5-1.4.094.431-.054.913-.082,1.4-.094,1.762-.25,3.621-.583,3.725-.889l-.02-.012c-17.55,1.811-35.964.137-55.688,1.51,1.712-.569,9.664-1.559,4.592-2.016-19.588-.805-30.982,2.057-50.735,3.431-.893-3.5,21.372-.5,22.122-3.832-20.821.781-42.241,2-65.388,3.8-8.083-5.128-22.582,2.094-36.938-1.908,1.359,1.718-5.782,2.34-13.574,2.386-.02.018,0,.023-.02.036l-1.164-.036c-3.79,0-7.649-.1-10.617-.307l10.617.307h1.184c2.677-1.4-5.545-1.437-3.259-2.447-6.83,1.572-26.535,2.22-25.761-1.125-1.784,3.236-14.653-.154-20.27,2.135a26.117,26.117,0,0,1,5.98,1.437l-7.212-.9a4.676,4.676,0,0,1,1.233-.536c-8.614-1.211-18.472.675-29.272-.3,3.417,1.839-7.959,1.157-13.19,1.621-.528.085-1.1.157-1.514.208a12.837,12.837,0,0,1,1.514-.208c.894-.143,1.661-.325,1.314-.5-3.24-1.766-12.444,1.547-18.54.5-2.76-.737.682-1.881-3.8-2.045-.1,1.448-16.5,3.136-22.576,1.362,2.808.009,2.857-.724,4.572-1.287-28.772,2.486-59.48-.544-88.872,2.385l5.212-2.442c-18.361-3.141-12.062,4.018-26.626,3.666-16.459-.491-33.175-1.378-49.857-2.139-8.341-.38-16.673-.728-24.961-.979q-6.216-.189-12.393-.3l-8.051-.1q.026,6.09.051,12.073.05,10.176.152,20.214c.36,5.665.44-3.275.954-4.229-.152,6.721-1.178,8.634-.53,17.75l.662-2.038c-1.793,35.284,1.213,101.9-1.6,128.042,1.058,33.769-.761,57.553.829,98.559-.59,12.942-1.141-15.037-1.305,2.452l1.027,37.745c1.761,36.8-2.287,95.827-.881,141.123l-.1-1.964c-.458-1.067-1.013,8.424-.857,15.866.325,2.594.495-2.413.884-6.863.295,15.639.482,26.621.61,36.253.064,4.815.113,9.293.153,13.845q.007.854.015,1.712l0,.43,0,.2,0,.06.007.242.026.962c.014.624.029,1.266.045,1.942l1.047-.1.312-.025.162-.012.083-.006.3-.006,2.77-.053c-7.038,1.362,6.53,1.185,7.232,3.078,4.292-1.236-2.466-1.963,7.081-3,13.586-.176,26.1,1.456,37.375,2.122,4.572-1.681,10.572-1.219,10.871-3.3,15.344-.12,23.886-.949,42.72-.93l.482.717c5.066-2.6,16.326,1.316,19.836-.181-.523.917-2.529,1.3-2.026,2.015l8.557-.836c-4.041.785-6.347,3.246.691,3.524,7.324-1.823-2.015-1.242,1.553-2.733l2.209,2.41c5.525-.262,7.078-2.986.32-3.717,18.843.029,37.446-1.125,54.234-.724l-1.784,1.571c9.3-.581,21.857-.568,27.377.809.251-.461,2.537-1.3,1.053-1.818,10.159-1.956,2.674,1.861,10.705.707.721-.116,1.458-.234,2.164-.363l.4-.075-.4.075c-.825.154-1.541.273-2.164.363-2.268.364-4.364.712-4.729,1.378l22.633-1.927c.237,1.167,13.991,3.787,23.558,2.754.371-.655-2.375-1.543-4.815-1.678l-2.437.249a6.388,6.388,0,0,1,2.438-.249l6.125-.585,4.718,2.725,8.865-2.39-.028-.527,1.764.066-1.735.461.16,2.278c6.53-.455,9.122-3.377,14.4-3.177,19.776,1.451,15.755,2.231,29.8,4.392,1.581-4.36,22.353.16,25.921-2.966,18.763,3.276,45.94,1.288,70.531,2.229l-2.015.385c10.509,2.024,11.964-3.3,23.3-2.424l-2.837.645c14.55,2.325,40.08.2,53.891-1.639-2.823.651-1.393,2.05,3.06,1.9,3.762-.852-3.659-3.052,4.167-2.229-1.932.42-.405,1.377,1.379,1.4l7.672-2.17c20.081,1.491,43.7,3.054,64.523,1.8,3.862.769,1.033,1.556.12,2.3,16.508-.458,32.925-2.274,47.829-2.67l1.513,2.514c7.3,0,4.521-3.852,14.019-1.61,2.118.338-6.279.163-8.885,1.278,14.661,1.91,8.654-2.453,22.653-2.172l-3.659,2.839c10.731,1.68,12.244-1.5,16.146-3.17,15.073-3.345,10.709,5.476,31.21,2.969,3.248-1.4-1.073-2.065,2.175-3.46,14.422.732,16.137-1.275,30.6-.547,7.715,4.237-7.358,0,1.039,3.96l-10.989-.959c9.476,2.233-8.614.567-7.129,3.078,7.1.726,17.9-1.4,27.168-2.233,0,1.9-10.766.22-6.487,2.785l4.752-.774c-1.3.558-1.533,1.278-4.312,1.225,1.707,1.785,5.588.106,10.124.059a3.546,3.546,0,0,0-1.26-3.588,1.148,1.148,0,0,1-.168-.161c.059.054.112.108.168.161a3.581,3.581,0,0,0,1.046.518c9.287-2.727,24.979-.663,32.951-2.834-1.282.563-.188.727.231,1.177,5.623.106,11.405-2.4,18.946-3.125,4.11,1.4-2.377,4.184,9.7,3.408,2.146-1.567-3.219-4.3,6.9-4.24,0,0-8.836,1.283-4.11,2.392,9.935-1.1,3.219.507,12.264,2.293,5.183-2.224,9.906.783,11-2.84,3.22,2.4,2.355,1.513,8.605,3.242-2.78-1.957,11.83-1.952,11.419-4.3,2.566,2.684-10.569,3.292-2.4,6.086,5.6-1.787,15.98-2.449,16.836-5.346,4.152.642,6.1,1.655,12.286,1.982a2.679,2.679,0,0,1,.6.029q-.308-.013-.6-.029a7.73,7.73,0,0,0-2.405.693c11.844-1.946,29.315,0,36-3.5-2.389,4.183,25.162.511,16.126,4.412a57.16,57.16,0,0,0,14.43-2.693c.02-.128-.068-.222-.006-.37.6.013.46.161.006.37-.531,3.258,12.278.825,17.65,2.756,2.671-1.759,10.961-1.261,16.384-2.163.206-.04.42-.079.647-.116-.21.041-.427.079-.647.116-1.971.384-2.951.922-2.182,1.725,6.048-1.337,4.544-.062,9.7,1.5,8.2-1-1.5-2.495,3.451-4.021,7.1.744,1.073,2.069,2.355,3.415l10.577-3.287a7.971,7.971,0,0,1,4.515,1.839c3.651-.953,6.913-2.343,12.056-.773l-9.067.105,3.471,1.669,10.774-2.1a36.749,36.749,0,0,1,8.065,1.955l-.139-4.981,1.228,5.366V754.623c-.184-4.416.092-10.1-.147-12.128.048.136.1.189.147.174V725.112c-.569-5.345-.479-8.166-1.4-15,.491-2.5.966-1.983,1.4.136V696.84c-.782-7.432-1.042-28.451-1.3-42.164.4,4.583.714,15.609,1.3,13.273v-2.983c-.345-12.568-.953-24.643-1.265-36.855-.15-1.952-.265-4.086-.324-6.653a2.107,2.107,0,0,0,.193.4c-.023-1.43-.044-2.9-.056-4.422-.042-1.51-.045-3.462-.01-6.358-.011,2.135,0,4.263.01,6.358a14.387,14.387,0,0,0,.45,3.951c-.092.942-.239.857-.394.471.033,2.106.078,4.144.131,6.249a98.048,98.048,0,0,0,1.265,9.928v-11.5a69.494,69.494,0,0,1-.595-9.388c.232-2.4.418-4.364.595-5.1V541.519c-.293-5.917-.57-12.772-.794-22.043-1.7-33.65,1.041-65.244-.2-88.637-.455-1.277-.8,17.489-1.086,2.31.911,2.634.583-9.117.946-9.854-1.329-16.473.3-24.289-.613-35.96.317,2.73.667-6.857.98-13.163a4.361,4.361,0,0,1-.448-1.414l.454,1.272c0,.045,0,.085-.006.142.468.765.625-2.257.763-4.318V326.3c-.206-2.811-.488-5.59-.878-8.353l-.317,6.318.528-24.806-.026,1.056c-.06,3.349-.161,7.538-.372,13.288l.372-13.288c.162-9.43-.047-11.868.693-22.127V246h-11.666a4.312,4.312,0,0,1-1.919,0h-2.981c-.218.309-.452.619-.119.912a4.082,4.082,0,0,1,1.436.531,3.149,3.149,0,0,1-1.436-.531c-.974-.262-2.3-.574-3.553-.912h-8.258a3.723,3.723,0,0,1,2.453,1.378l-18.221.93c-2.035-.005,1.5-.875,4.062-.887A63.849,63.849,0,0,0,1016.671,246H1009.8c-15.183.484-30.844,3.639-47.569,0h-.82c1.64,1.165-2.379,1.089-4.538,2.025-7.82-.459-19.645-.078-26.883-.977l2.306-1.007c-18.612,1.233-31.441,2.827-43.725,2.2-.6.437.091-1.449,2.312-1.738-3.9.794-8.125.165-11.879-.5H868.785a2.474,2.474,0,0,0-.332.409l3.342.307c-17.935-.654-37.78,2.172-56.315,2.675-4.341-2.343,10.683-.245,6.89-3.023-12.855-.923-25.893,1.053-39.883.267a6.888,6.888,0,0,0,2.431-.634h-5.831c.164.735,3.3,2.123-3.953,1.911.584-1.065.142-1.4-2.992-1.911h-1.095l-3.2,1.741c-.425-.222-.482-1.079.23-1.741h-.667c-6.3,1.6-19.508.422-23.238,2.515-.723-.4.424-1.549.693-2.515H729.737c-.095,1.177-2.469,1.136-5.525.978a30.344,30.344,0,0,1-7.991-.037,46.875,46.875,0,0,1,7.991.037c1.9-.234,3.688-.6,5.5-.978H710.167a9.442,9.442,0,0,1-3.514,1.052l8.933,1.047-15.783.523,6.259-1.137c-7.241-.9-14.685,1.107-23.107,1.06l3.859,1.34-9.616.823c-.947-2.76-12.3-.621-7.029-3.811-17.6-1.359-29,2.093-44.9,2.414-.216.011-.467.017-.764.015.257,0,.509-.01.764-.015,1.853-.093,1.026-.6,1.536-.992-9.49-.621-15.2.813-20.889,2.242,1.161-.863,3.428-1.146,3.467-1.881-11.231-.034-6.827,1.578-19.222,2.4,3.428-1.153,2.355-1.745-1.024-2.04.522,1.013-2.335,1.73-4.612,2.016,7.9-4.646-7.525-3.03-8.884-5.059h-4.366C566.15,247.138,559.414,248.57,561.571,249.95Zm505.4,439.818a30.545,30.545,0,0,1,.124,3.866l.263,8.134a65.979,65.979,0,0,1-.263-8.134l-.124-3.866c-.043-.267-.1-.471-.168-.415l.043-3.479Zm.249-128.593c.639,6.585-.833,23.421-.27,27.968l.379,1.1c-.177-.114-.3-.5-.379-1.1l-.3-.9C1066.41,578.567,1067.132,568.105,1067.218,561.174ZM811.642,247.339l-2.349,1.733-4.935-1.175ZM779.675,767.553a9.882,9.882,0,0,0-3.085-1.867C788.463,765.549,778.645,766.076,779.675,767.553Z" transform="translate(-28.014 -246)" fill="#f77e0b"/>
</svg>
