<svg xmlns="http://www.w3.org/2000/svg" xmlns:xlink="http://www.w3.org/1999/xlink" width="830" height="220" viewBox="0 0 830 220">
  <defs>
    <filter id="Path_14" x="0" y="0" width="830" height="220" filterUnits="userSpaceOnUse">
      <feOffset dy="5" input="SourceAlpha"/>
      <feGaussianBlur stdDeviation="25" result="blur"/>
      <feFlood flood-color="#231f20"/>
      <feComposite operator="in" in2="blur"/>
      <feComposite in="SourceGraphic"/>
    </filter>
  </defs>
  <g id="Group_18" data-name="Group 18" transform="translate(75 70)" opacity="0.5">
    <g transform="matrix(1, 0, 0, 1, -75, -70)" filter="url(#Path_14)">
      <path id="Path_14-2" data-name="Path 14" d="M376.7,246.525h.018l-.005,0c.1.012.215.024.365.037l2.2-.055c.256.2-2.742.122-5,.137-1.6.045-3.065.066-.916.012.282-.007.6-.011.916-.012,1.151-.033,2.367-.078,2.435-.118l-.013,0c-11.469.241-23.5.018-36.393.2,1.119-.076,6.316-.207,3-.268-12.8-.107-20.247.274-33.156.457-.584-.466,13.967-.066,14.457-.51-13.607.1-27.605.266-42.732.505-5.282-.682-14.758.279-24.14-.254.888.229-3.779.311-8.871.317-.013,0,0,0-.013,0l-.761,0c-2.477,0-5-.014-6.939-.041l6.939.041h.774c1.75-.186-3.624-.191-2.13-.326-4.463.209-17.341.3-16.835-.15-1.166.431-9.576-.02-13.247.284,1.356.037,2.669.094,3.908.191l-4.713-.12c.19-.032.519-.049.806-.071-5.629-.161-12.072.09-19.13-.04,2.233.245-5.2.154-8.62.216-.345.011-.719.021-.99.028.265-.012.6-.021.99-.028.584-.019,1.085-.043.859-.067-2.117-.235-8.132.206-12.117.066-1.8-.1.446-.25-2.483-.272a146.353,146.353,0,0,1-14.754.181,24.736,24.736,0,0,0,2.988-.171c-18.8.331-38.871-.072-58.079.317l3.406-.325c-12-.418-7.883.535-17.4.488-10.756-.065-21.68-.183-32.582-.285q-8.176-.076-16.313-.13-4.062-.025-8.1-.039l-5.262-.013q.017.81.033,1.606.033,1.354.1,2.69c.235.754.288-.436.623-.563-.1.894-.77,1.149-.346,2.362l.432-.271c-1.172,4.695.793,13.559-1.043,17.037.692,4.493-.5,7.658.541,13.114-.386,1.722-.746-2-.853.326l.671,5.022c1.151,4.9-1.495,12.751-.576,18.778l-.065-.261c-.3-.142-.662,1.121-.56,2.111.212.345.323-.321.578-.913.193,2.081.315,3.542.4,4.824.042.641.074,1.237.1,1.842q0,.114.01.228l0,.057v.035l0,.032.017.128.029.258.684-.013.2,0,.106,0h.248l1.81-.007c-4.6.181,4.268.158,4.727.41,2.805-.165-1.612-.261,4.628-.4,8.879-.023,17.057.194,24.425.282,2.988-.224,6.909-.162,7.1-.439,10.027-.016,15.61-.126,27.919-.124l.315.1c3.311-.346,10.669.175,12.963-.024-.341.122-1.653.172-1.324.268l5.592-.111c-2.641.1-4.148.432.451.469,4.786-.243-1.317-.165,1.015-.364l1.444.321c3.611-.035,4.626-.4.209-.495,12.314,0,24.472-.15,35.443-.1l-1.166.209c6.075-.077,14.284-.076,17.891.108.164-.061,1.658-.173.688-.242,6.639-.26,1.748.248,7,.094.471-.015.953-.031,1.414-.048l.259-.01-.259.01c-.539.02-1.007.036-1.414.048a25.605,25.605,0,0,0-3.09.183l14.791-.256c.155.155,9.143.5,15.4.366a13.575,13.575,0,0,0-3.147-.223l-1.593.033c.414-.032.979-.04,1.593-.033l4-.078,3.083.363,5.793-.318-.018-.07,1.153.009-1.134.061.1.3c4.268-.06,5.961-.449,9.412-.423,12.924.193,10.3.3,19.473.584,1.033-.58,14.608.021,16.94-.395,12.262.436,30.023.171,46.093.3l-1.317.051c6.868.269,7.819-.44,15.224-.323l-1.854.086c9.509.309,26.193.027,35.219-.218-1.845.087-.91.273,2,.253,2.458-.113-2.391-.406,2.723-.3-1.263.056-.265.183.9.186l5.014-.289c13.124.2,28.562.406,42.167.239,2.524.1.675.207.078.306,10.789-.061,21.517-.3,31.258-.355l.989.335c4.771,0,2.955-.512,9.162-.214,1.384.045-4.1.022-5.806.17,9.582.254,5.655-.326,14.8-.289l-2.391.378a53.781,53.781,0,0,0,10.552-.422c9.85-.445,7,.729,20.4.4,2.123-.186-.7-.275,1.421-.46,9.425.1,10.546-.17,20-.073,5.042.564-4.809,0,.679.527l-7.181-.128c6.192.3-5.629.075-4.659.41,4.641.1,11.7-.186,17.755-.3,0,.253-7.036.029-4.24.371l3.105-.1a18.168,18.168,0,0,1-2.818.163,56.764,56.764,0,0,0,6.616.008c.194-.126.059-.3-.823-.477-.045-.007-.081-.014-.11-.021l.11.021c.133.022.345.045.683.069,6.069-.363,16.324-.088,21.534-.377-.838.075-.123.1.151.157,3.675.014,7.454-.319,12.382-.416,2.686.186-1.554.557,6.338.453,1.4-.208-2.1-.572,4.508-.564,0,0-5.774.171-2.686.318,6.493-.146,2.1.067,8.015.305,3.387-.3,6.474.1,7.19-.378a41.063,41.063,0,0,0,5.624.431c-1.817-.26,7.731-.26,7.463-.572,1.677.357-6.907.438-1.567.81,3.658-.238,10.443-.326,11-.711,2.714.085,3.987.22,8.029.264.135,0,.267,0,.394,0l-.394,0c-.59.007-1.22.062-1.572.092,7.741-.259,19.158,0,23.528-.466-1.561.556,16.444.068,10.539.587,3.232-.018,8.324-.255,9.431-.358.013-.017-.045-.029,0-.049.392,0,.3.021,0,.049-.347.434,8.024.11,11.534.367,1.746-.234,7.163-.168,10.707-.288l.423-.015-.423.015c-1.288.051-1.929.123-1.426.229a33.09,33.09,0,0,1,6.338.2c5.361-.133-.983-.332,2.255-.535,4.639.1.7.275,1.539.454l6.913-.437a19.629,19.629,0,0,1,2.951.245,58.937,58.937,0,0,1,7.879-.1l-5.926.014,2.268.222,7.041-.28c2.479.079,4.158.166,5.271.26l-.091-.663.8.714v-1.788c-.12-.588.06-1.344-.1-1.614a.169.169,0,0,0,.1.023V309.75a12.864,12.864,0,0,0-.912-2,.566.566,0,0,1,.912.018v-1.784c-.511-.989-.681-3.786-.849-5.61.26.61.467,2.077.849,1.766v-.4c-.226-1.672-.623-3.279-.827-4.9a3.61,3.61,0,0,1-.212-.885.712.712,0,0,0,.126.054c-.015-.19-.029-.385-.037-.588a4.528,4.528,0,0,1-.006-.846c-.007.284,0,.567.006.846a.637.637,0,0,0,.294.526c-.06.125-.156.114-.257.063.021.28.051.551.086.832a4.352,4.352,0,0,0,.827,1.321v-1.53a2.242,2.242,0,0,1-.389-1.249,2.493,2.493,0,0,1,.389-.678v-9.385a23.842,23.842,0,0,1-.519-2.933c-1.11-4.477.68-8.681-.129-11.794-.3-.17-.523,2.327-.71.307.6.35.381-1.213.618-1.311-.868-2.192.193-3.232-.4-4.785.207.363.436-.912.641-1.751a.715.715,0,0,1-.293-.188l.3.169a.125.125,0,0,0,0,.019c.306.1.408-.3.5-.575v-5.8a4.75,4.75,0,0,0-.574-1.112l-.207.841.345-3.3-.017.14c-.039.446-.1,1-.243,1.768l.243-1.768a8.361,8.361,0,0,1,.453-2.944V246h-7.624c-.282.017-.67.02-1.254,0h-1.948c-.142.041-.3.082-.078.121.493.028.9.053.938.071a8.076,8.076,0,0,1-.938-.071c-.636-.035-1.506-.076-2.322-.121h-5.4a7.765,7.765,0,0,1,1.6.183l-11.908.124c-1.33,0,.983-.116,2.654-.118-2.526-.115-5.063-.17-7.617-.189h-4.491c-9.922.064-20.157.484-31.088,0h-.536c1.072.155-1.555.145-2.966.269-5.111-.061-12.838-.01-17.568-.13l1.507-.134c-12.163.164-20.547.376-28.575.292-.392.058.06-.193,1.511-.231-2.547.106-5.31.022-7.763-.066h-6.677a2.172,2.172,0,0,0-.217.054l2.184.041c-11.721-.087-24.69.289-36.8.356-2.837-.312,6.982-.033,4.5-.4-8.4-.123-16.921.14-26.065.035,1.251-.032,1.21-.063,1.589-.084h-3.81c.107.1,2.159.282-2.583.254.382-.142.093-.186-1.955-.254H513.6l-2.093.232c-.277-.03-.315-.144.151-.232h-.436c-4.118.213-12.749.056-15.187.335-.472-.053.277-.206.453-.335H486.6a14.837,14.837,0,0,1-3.611.13c-1.552.038-3.223.05-5.222,0,1.652-.042,3.583-.014,5.222,0,1.239-.031,2.41-.08,3.6-.13H473.815c-.344.047-1,.1-2.3.14l5.838.139-10.315.07,4.09-.151c-4.732-.12-9.6.147-15.1.141l2.522.178-6.284.109c-.619-.367-8.041-.083-4.594-.507-11.5-.181-18.954.279-29.343.321-.141,0-.305,0-.5,0l.5,0c1.211-.012.67-.079,1-.132-6.2-.083-9.936.108-13.651.3.759-.115,2.24-.152,2.266-.25-7.34,0-4.462.21-12.562.32,2.24-.154,1.539-.232-.67-.271.341.135-1.526.23-3.014.268,5.161-.618-4.918-.4-5.806-.673h-2.853C379.7,246.151,375.3,246.342,376.7,246.525Zm330.289,58.522c.075.073.081.278.081.514l.172,1.082a1.9,1.9,0,0,1-.172-1.082l-.081-.514a.118.118,0,0,0-.11-.055l.028-.463Zm.162-17.11c.418.876-.544,3.116-.176,3.721l.248.146a.328.328,0,0,1-.248-.146l-.2-.12A17.58,17.58,0,0,1,707.156,287.937ZM540.131,246.178l-1.535.231-3.225-.156ZM519.24,315.4a19.836,19.836,0,0,0-2.016-.248C524.983,315.13,518.567,315.2,519.24,315.4Z" transform="translate(46.99 -176)" fill="#ececec"/>
    </g>
  </g>
</svg>
