<svg xmlns="http://www.w3.org/2000/svg" width="959.035" height="424.844" viewBox="0 0 959.035 424.844">
  <path id="slider" d="M520.68,249.2l.026,0s-.006.008-.007.012a3.43,3.43,0,0,0,.516.222l3.114-.333c.361,1.23-3.873.744-7.069.832-2.266.274-4.329.4-1.294.076.4-.044.843-.067,1.294-.076,1.626-.2,3.343-.472,3.439-.721l-.019-.01c-16.2,1.467-33.2.111-51.407,1.224,1.581-.461,8.921-1.263,4.239-1.634-18.082-.653-28.6,1.667-46.835,2.78-.824-2.836,19.729-.4,20.422-3.1-19.22.633-38.994,1.619-60.361,3.075-7.462-4.155-20.846,1.7-34.1-1.546,1.254,1.392-5.338,1.9-12.531,1.933-.018.015,0,.019-.018.03l-1.075-.03c-3.5,0-7.061-.085-9.8-.249l9.8.249h1.093c2.471-1.134-5.119-1.164-3.009-1.983-6.3,1.273-24.495,1.8-23.781-.911-1.647,2.622-13.527-.125-18.712,1.73a26.932,26.932,0,0,1,5.52,1.164l-6.658-.73a4.644,4.644,0,0,1,1.138-.434c-7.952-.981-17.052.547-27.022-.244,3.154,1.49-7.347.937-12.176,1.313-.487.069-1.015.127-1.4.168a13.4,13.4,0,0,1,1.4-.168c.825-.116,1.533-.263,1.213-.409-2.991-1.431-11.487,1.253-17.115.4-2.548-.6.63-1.524-3.507-1.657-.095,1.173-15.231,2.541-20.84,1.1,2.592.007,2.637-.587,4.221-1.043-26.561,2.014-54.908-.44-82.04,1.932l4.811-1.978c-16.949-2.545-11.134,3.256-24.579,2.97-15.193-.4-30.624-1.117-46.024-1.733-7.7-.308-15.392-.59-23.042-.793q-5.738-.153-11.44-.24l-7.432-.082c.016,3.29.126,416.208.141,416.755l.966-.081.288-.02.15-.01.076-.005.273-.005,2.557-.043c-6.5,1.1,6.028.96,6.677,2.494,3.962-1-2.277-1.59,6.537-2.428,12.541-.143,24.094,1.18,34.5,1.719,4.221-1.362,9.759-.987,10.036-2.672,14.164-.1,22.05-.769,39.436-.753l.445.581c4.677-2.1,15.071,1.066,18.311-.146-.482.743-2.334,1.05-1.871,1.632l7.9-.677c-3.731.636-5.86,2.63.638,2.855,6.761-1.477-1.86-1.006,1.433-2.214l2.039,1.952c5.1-.212,6.534-2.419.3-3.012,17.394.023,34.567-.911,50.065-.587l-1.646,1.273c8.581-.471,20.177-.461,25.272.655.232-.373,2.342-1.053.972-1.473,9.378-1.585,2.469,1.508,9.882.573.665-.094,1.346-.189,2-.294l.366-.061-.366.061c-.761.125-1.423.222-2,.294-2.093.295-4.029.577-4.365,1.116l20.893-1.562c.219.946,12.915,3.068,21.747,2.231.343-.53-2.192-1.25-4.445-1.359l-2.25.2a6.677,6.677,0,0,1,2.25-.2l5.654-.474,4.355,2.208,8.183-1.936-.026-.427,1.628.054-1.6.373.148,1.846c6.028-.368,8.421-2.736,13.295-2.574,18.256,1.176,14.544,1.808,27.507,3.558,1.46-3.532,20.635.13,23.928-2.4,17.321,2.654,42.409,1.044,65.109,1.806l-1.86.312c9.7,1.64,11.045-2.678,21.5-1.964l-2.619.522c13.432,1.883,37,.162,49.749-1.328-2.606.528-1.286,1.661,2.824,1.538,3.472-.69-3.378-2.473,3.846-1.806-1.783.341-.374,1.116,1.273,1.135l7.082-1.758c18.538,1.208,40.345,2.475,59.563,1.457,3.565.623.954,1.26.111,1.866,15.239-.371,30.394-1.843,44.153-2.163l1.4,2.037c6.74,0,4.173-3.121,12.942-1.3,1.955.274-5.8.132-8.2,1.036,13.535,1.547,7.988-1.988,20.912-1.76l-3.378,2.3c9.906,1.361,11.3-1.213,14.9-2.568,13.914-2.71,9.885,4.437,28.811,2.406,3-1.132-.991-1.673,2.007-2.8,13.313.593,14.9-1.033,28.244-.443,7.122,3.432-6.792,0,.959,3.209L701.1,668.27c8.747,1.809-7.952.46-6.581,2.494,6.555.588,51.7-2.163,59.062-3.922-1.183.457-.174.589.213.954,5.191.086,10.529-1.945,17.49-2.532,3.794,1.134-2.195,3.39,8.953,2.761,1.981-1.269-2.972-3.484,6.368-3.435,0,0-8.157,1.04-3.794,1.938,9.171-.892,2.972.411,11.321,1.858,4.785-1.8,9.145.634,10.157-2.3,2.972,1.947,2.174,1.226,7.944,2.627-2.566-1.586,10.921-1.581,10.541-3.484,2.369,2.175-9.756,2.667-2.213,4.931,5.167-1.448,14.752-1.984,15.542-4.331,3.833.52,5.631,1.341,11.342,1.606a2.81,2.81,0,0,1,.557.024l-.557-.024a7.9,7.9,0,0,0-2.22.562c10.934-1.577,27.061,0,33.234-2.839-2.205,3.389,23.228.414,14.886,3.575a59.319,59.319,0,0,0,13.321-2.182c.018-.1-.063-.18-.005-.3.553.01.424.13.005.3-.49,2.64,11.335.668,16.293,2.233,2.466-1.425,10.118-1.022,15.124-1.753.19-.033.387-.064.6-.094-.194.033-.394.064-.6.094-1.819.311-2.725.747-2.014,1.4,5.583-1.084,4.194-.05,8.953,1.217,7.572-.812-1.388-2.021,3.185-3.258,6.553.6.991,1.676,2.174,2.767l9.764-2.663a7.911,7.911,0,0,1,4.168,1.49c3.37-.772,6.381-1.9,11.129-.626l-8.37.085,3.2,1.352,9.946-1.705a37.842,37.842,0,0,1,7.445,1.584l-.128-4.036,1.134,4.347c-.17-14.463-.683-388.426,0-422.979H977.9a4.522,4.522,0,0,1-1.772,0h-2.752c-.2.251-.417.5-.11.739a4.089,4.089,0,0,1,1.325.43,3.149,3.149,0,0,1-1.325-.43c-.9-.212-2.128-.465-3.28-.739h-7.623a3.582,3.582,0,0,1,2.264,1.117l-16.82.753c-1.878,0,1.389-.709,3.749-.719A66.787,66.787,0,0,0,940.8,246h-6.344c-14.015.392-28.473,2.948-43.913,0h-.757c1.514.944-2.2.882-4.189,1.64-7.219-.372-18.135-.063-24.816-.791l2.129-.816c-17.181,1-29.024,2.29-40.364,1.78-.554.354.084-1.174,2.134-1.408-3.6.643-7.5.134-10.966-.4h-9.431a2.077,2.077,0,0,0-.306.331l3.085.249c-16.557-.53-34.876,1.76-51.986,2.167-4.008-1.9,9.862-.2,6.36-2.449-11.867-.748-23.9.853-36.817.216a7.043,7.043,0,0,0,2.244-.514h-5.382c.151.6,3.049,1.72-3.649,1.548.539-.863.131-1.131-2.762-1.548h-1.011l-2.957,1.411c-.392-.18-.444-.874.213-1.411H710.7c-5.816,1.3-18.009.342-21.452,2.038-.667-.326.391-1.255.64-2.038H675.919c-.087.954-2.279.921-5.1.792a31.882,31.882,0,0,1-7.377-.03,49.287,49.287,0,0,1,7.377.03c1.751-.189,3.4-.488,5.081-.792H657.853a9.6,9.6,0,0,1-3.244.852l8.247.848-14.57.424,5.778-.921c-6.684-.732-13.556.9-21.331.858l3.562,1.085-8.877.667c-.875-2.236-11.358-.5-6.489-3.087-16.246-1.1-26.773,1.7-41.448,1.956-.2.009-.432.014-.705.012.237,0,.47-.008.705-.012,1.71-.075.947-.483,1.418-.8a62.386,62.386,0,0,0-19.283,1.816c1.072-.7,3.164-.929,3.2-1.524-10.368-.028-6.3,1.278-17.745,1.947,3.164-.935,2.174-1.414-.946-1.653.482.82-2.155,1.4-4.258,1.634,7.29-3.765-6.946-2.455-8.2-4.1h-4.03C524.907,246.922,518.689,248.082,520.68,249.2Zm230.848-2.115-2.168,1.4-4.555-.952Z" transform="translate(-29.634 -246)" fill="#f77e0b"/>
</svg>
