<svg xmlns="http://www.w3.org/2000/svg" width="1381.006" height="386.286" viewBox="0 0 1381.006 386.286">
  <g id="Group_1016" data-name="Group 1016" transform="translate(0.505 0.5)">
    <path id="tab" d="M735.651,248.893l.037,0s-.008.007-.01.011a6.729,6.729,0,0,0,.741.2l4.474-.3c.519,1.112-5.564.673-10.156.752-3.255.248-6.219.364-1.859.069.572-.039,1.211-.06,1.859-.069,2.336-.183,4.8-.427,4.941-.652l-.027-.009c-23.276,1.327-47.7.1-73.857,1.106,2.271-.416,12.817-1.142,6.091-1.477-25.979-.59-41.09,1.507-67.288,2.513-1.185-2.564,28.344-.365,29.34-2.807-27.614.572-56.023,1.464-86.722,2.78-10.72-3.756-29.949,1.534-48.99-1.4,1.8,1.259-7.669,1.714-18,1.748-.026.013,0,.017-.026.027l-1.544-.027c-5.027,0-10.145-.076-14.081-.225l14.081.225h1.571c3.551-1.025-7.355-1.052-4.323-1.793-9.058,1.151-35.192,1.626-34.166-.824-2.366,2.371-19.434-.113-26.884,1.564a59.022,59.022,0,0,1,7.93,1.052l-9.565-.66a9.355,9.355,0,0,1,1.635-.393c-11.424-.887-24.5.494-38.822-.221,4.532,1.347-10.555.847-17.494,1.187-.7.062-1.459.115-2.008.152.537-.064,1.221-.113,2.008-.152,1.186-.105,2.2-.238,1.743-.37-4.3-1.294-16.5,1.133-24.59.366-3.66-.54.9-1.378-5.038-1.5-.136,1.061-21.883,2.3-29.942,1,3.725.006,3.789-.53,6.064-.943-38.16,1.821-78.886-.4-117.867,1.747l6.912-1.789c-24.351-2.3-16,2.943-35.313,2.685-21.829-.36-44-1.01-66.123-1.567q-16.593-.417-33.1-.717-8.244-.138-16.437-.217l-10.678-.074q.034,4.461.068,8.844.066,7.454.2,14.807c.477,4.149.584-2.4,1.265-3.1-.2,4.923-1.562,6.324-.7,13l.878-1.493c-2.378,25.845,1.609,74.643-2.116,93.79,1.4,24.735-1.009,42.157,1.1,72.193-.782,9.48-1.513-11.014-1.731,1.8l1.362,27.648c2.335,26.959-3.033,70.193-1.169,103.372l-.131-1.439c-.607-.781-1.343,6.17-1.136,11.621.431,1.9.656-1.767,1.173-5.027.391,11.455.64,19.5.809,26.555.085,3.527.15,6.807.2,10.142q.01.625.019,1.254l0,.315,0,.147,0,.044.009.177.034.7c.019.457.039.928.059,1.422l1.388-.073.414-.018.215-.009.11,0,.393,0,3.673-.039c-9.334,1,8.661.868,9.592,2.255,5.693-.906-3.271-1.437,9.391-2.2,18.018-.129,34.617,1.067,49.569,1.554,6.064-1.231,14.021-.892,14.418-2.416,20.35-.088,31.679-.7,56.658-.681l.64.525c6.719-1.9,21.652.964,26.308-.132-.693.672-3.354.949-2.688,1.476l11.348-.612c-5.36.575-8.418,2.377.916,2.581,9.713-1.335-2.672-.91,2.059-2l2.93,1.765c7.328-.192,9.388-2.187.424-2.723,24.991.021,49.663-.824,71.928-.53l-2.366,1.151c12.329-.426,28.988-.417,36.309.592.333-.337,3.365-.952,1.4-1.331,13.473-1.433,3.547,1.363,14.2.518.956-.085,1.934-.171,2.87-.266l.526-.055-.526.055c-1.094.113-2.044.2-2.87.266-3.008.267-5.788.522-6.272,1.009l30.018-1.412c.314.855,18.555,2.774,31.244,2.017.492-.479-3.149-1.13-6.386-1.229l-3.233.182a15.064,15.064,0,0,1,3.233-.182l8.123-.429,6.257,2,11.757-1.751-.038-.386,2.339.048-2.3.337.212,1.669c8.661-.333,12.1-2.474,19.1-2.327,26.228,1.063,20.895,1.634,39.519,3.217,2.1-3.193,29.646.117,34.378-2.172,24.885,2.4,60.929.944,93.543,1.633l-2.672.282c13.937,1.482,15.868-2.421,30.9-1.776l-3.762.472c19.3,1.7,53.157.147,71.474-1.2-3.744.477-1.847,1.5,4.058,1.391,4.989-.624-4.853-2.236,5.526-1.633-2.562.308-.537,1.009,1.828,1.026l10.175-1.59c26.633,1.092,57.964,2.237,85.574,1.317,5.122.563,1.37,1.139.159,1.687,21.894-.336,43.668-1.666,63.434-1.956l2.006,1.842c9.683,0,6-2.821,18.593-1.179,2.809.247-8.328.119-11.784.936,19.445,1.4,11.477-1.8,30.044-1.591l-4.853,2.08c14.233,1.231,16.239-1.1,21.414-2.322,19.99-2.45,14.2,4.011,41.393,2.175,4.307-1.023-1.424-1.513,2.884-2.534,19.127.536,21.4-.934,40.579-.4,10.232,3.1-9.759,0,1.378,2.9l-14.574-.7c12.567,1.636-11.424.416-9.456,2.255,9.418.531,23.741-1.024,36.032-1.635,0,1.391-14.278.161-8.6,2.04l6.3-.567a14.266,14.266,0,0,1-5.719.9c2.264,1.308,7.411.078,13.427.044.393-.7.12-1.664-1.67-2.628a1.488,1.488,0,0,1-.222-.118c.078.04.149.079.222.118a6.79,6.79,0,0,0,1.387.379c12.317-2,33.129-.485,43.7-2.076-1.7.413-.25.533.306.862,7.457.078,15.126-1.758,25.127-2.289,5.451,1.025-3.153,3.065,12.862,2.5,2.847-1.148-4.27-3.149,9.149-3.106,0,0-11.719.94-5.451,1.752,13.177-.807,4.27.372,16.265,1.679,6.874-1.629,13.139.574,14.592-2.08,4.27,1.76,3.123,1.108,11.413,2.375-3.687-1.433,15.69-1.43,15.145-3.149,3.4,1.966-14.017,2.412-3.18,4.458,7.423-1.309,21.194-1.794,22.329-3.916,5.507.47,8.091,1.212,16.295,1.452a6.413,6.413,0,0,1,.8.021l-.8-.021a16.98,16.98,0,0,0-3.19.508c15.709-1.426,38.879,0,47.748-2.567-3.168,3.064,33.371.374,21.387,3.232a131.753,131.753,0,0,0,19.139-1.973c.026-.094-.091-.163-.008-.271.795.009.61.118.008.271-.7,2.387,16.284.6,23.408,2.019,3.543-1.288,14.537-.924,21.729-1.584.273-.029.557-.058.858-.085-.279.03-.566.058-.858.085-2.614.281-3.914.675-2.893,1.263,8.021-.98,6.026-.045,12.862,1.1,10.879-.734-1.995-1.827,4.576-2.946,9.414.545,1.424,1.516,3.123,2.5l14.028-2.408a15.9,15.9,0,0,1,5.988,1.347c4.842-.7,9.168-1.716,15.989-.566l-12.026.077,4.6,1.223,14.29-1.542a82.707,82.707,0,0,1,10.7,1.432l-.184-3.649,1.629,3.93v-9.841c-.245-3.235.122-7.4-.194-8.883.064.1.13.138.194.128V596.946c-.755-3.915-.636-5.981-1.851-10.988.651-1.835,1.281-1.452,1.851.1v-9.821c-1.037-5.444-1.382-20.84-1.724-30.885.527,3.357.948,11.434,1.724,9.722v-2.185c-.458-9.206-1.265-18.051-1.678-27-.2-1.43-.352-2.993-.43-4.873a1.468,1.468,0,0,0,.256.3c-.031-1.048-.059-2.121-.074-3.239-.056-1.106-.059-2.536-.013-4.657-.014,1.563,0,3.123.013,4.657a6.188,6.188,0,0,0,.6,2.894c-.122.69-.317.628-.523.345.044,1.542.1,3.035.174,4.578a42,42,0,0,0,1.678,7.272V524.74a28.638,28.638,0,0,1-.789-6.876,25.4,25.4,0,0,1,.789-3.733V462.465c-.389-4.334-.756-9.355-1.053-16.146-2.253-24.648,1.38-47.791-.261-64.926-.6-.935-1.062,12.811-1.44,1.692,1.208,1.929.773-6.678,1.255-7.218-1.762-12.066.392-17.792-.813-26.34.42,2,.885-5.022,1.3-9.642a2.433,2.433,0,0,1-.594-1.036l.6.932c0,.033,0,.062-.008.1.621.561.828-1.653,1.012-3.163v-31.9a52.342,52.342,0,0,0-1.165-6.119l-.42,4.628.7-18.17-.035.773c-.079,2.453-.213,5.522-.493,9.734l.493-9.734c.216-6.907-.062-8.693.919-16.208V246h-15.473a10.266,10.266,0,0,1-2.546,0h-3.953c-.289.227-.6.454-.158.668a8.412,8.412,0,0,1,1.9.389,6.449,6.449,0,0,1-1.9-.389c-1.291-.192-3.057-.421-4.712-.668h-10.953a6.656,6.656,0,0,1,3.253,1.01l-24.166.681c-2.7,0,2-.641,5.387-.65A150.765,150.765,0,0,0,1339.234,246h-9.115c-20.136.355-40.908,2.666-63.089,0h-1.088c2.175.854-3.155.8-6.019,1.483-10.372-.336-26.054-.057-35.654-.715l3.059-.738c-24.684.9-41.7,2.071-57.991,1.609-.8.32.121-1.062,3.066-1.273a77.386,77.386,0,0,1-15.755-.366H1143.1a2.624,2.624,0,0,0-.44.3l4.433.225c-23.787-.479-50.106,1.591-74.688,1.959-5.758-1.716,14.168-.18,9.137-2.214-17.049-.676-34.34.771-52.9.2a15.154,15.154,0,0,0,3.224-.465h-7.733c.218.538,4.381,1.555-5.242,1.4.775-.78.188-1.022-3.968-1.4h-1.452l-4.248,1.275c-.563-.162-.639-.79.305-1.275h-.884c-8.356,1.173-25.873.309-30.82,1.843-.958-.295.562-1.135.92-1.843H958.684c-.125.862-3.275.832-7.327.716a72.65,72.65,0,0,1-10.6-.027c3.353-.231,7.272-.075,10.6.027,2.515-.171,4.891-.441,7.3-.716H932.729a20.385,20.385,0,0,1-4.66.77l11.848.767-20.933.383,8.3-.833c-9.6-.662-19.476.811-30.646.776l5.118.981-12.753.6c-1.257-2.022-16.318-.455-9.323-2.791-23.341-1-38.466,1.533-59.548,1.768-.287.008-.62.012-1.013.011.341,0,.676-.007,1.013-.011,2.457-.068,1.36-.436,2.038-.726a140.614,140.614,0,0,0-27.7,1.642c1.54-.632,4.546-.84,4.6-1.378-14.9-.025-9.054,1.156-25.494,1.76,4.546-.845,3.123-1.278-1.359-1.494.693.742-3.1,1.267-6.117,1.477,10.474-3.4-9.98-2.219-11.782-3.706h-5.79C741.725,246.833,732.791,247.882,735.651,248.893Zm670.292,322.163a12.44,12.44,0,0,1,.164,2.831l.349,5.958a26.863,26.863,0,0,1-.349-5.958l-.164-2.831c-.057-.2-.131-.345-.223-.3l.057-2.549Zm.33-94.193c.848,4.823-1.1,17.156-.358,20.486l.5.8c-.235-.083-.4-.366-.5-.8l-.4-.661C1405.2,489.6,1406.159,481.94,1406.274,476.863ZM1067.312,246.981l-3.115,1.269-6.545-.861Zm-42.4,381.052a17.176,17.176,0,0,0-4.092-1.367C1036.57,626.565,1023.549,626.952,1024.915,628.033Z" transform="translate(-28.014 -246)" fill="#f77e0b" stroke="rgba(0,0,0,0)" stroke-width="1"/>
  </g>
</svg>
