<svg xmlns="http://www.w3.org/2000/svg" width="1380" height="80.975" viewBox="0 0 1380 80.975">
  <path id="tab_notactive" d="M735.651,246.608h.037l-.01,0c.195.014.437.028.741.042l4.474-.063c.519.234-5.564.141-10.156.158-3.255.052-6.219.077-1.859.014.572-.008,1.211-.013,1.859-.014,2.336-.039,4.8-.09,4.941-.137l-.027,0c-23.276.279-47.7.021-73.857.232,2.271-.087,12.817-.24,6.091-.31-25.979-.124-41.09.317-67.288.528-1.185-.539,28.344-.077,29.34-.59-27.614.12-56.023.308-86.722.584-10.72-.789-29.949.322-48.99-.294,1.8.264-7.669.36-18,.367-.026,0,0,0-.026.006l-1.544-.006c-5.027,0-10.145-.016-14.081-.047l14.081.047h1.571c3.551-.215-7.355-.221-4.323-.377-9.058.242-35.192.342-34.166-.173-2.366.5-19.434-.024-26.884.329,2.752.043,5.417.108,7.93.221l-9.565-.139c.386-.037,1.052-.057,1.635-.083-11.424-.186-24.5.1-38.822-.046,4.532.283-10.555.178-17.494.249-.7.013-1.459.024-2.008.032.537-.013,1.221-.024,2.008-.032,1.186-.022,2.2-.05,1.743-.078-4.3-.272-16.5.238-24.59.077-3.66-.113.9-.29-5.038-.315-.136.223-21.883.483-29.942.21,3.725,0,3.789-.111,6.064-.2-38.16.383-78.886-.084-117.867.367l6.912-.376c-24.351-.483-16,.618-35.313.564-21.829-.076-44-.212-66.123-.329q-16.593-.088-33.1-.151-8.244-.029-16.437-.046l-10.678-.016q.034.937.068,1.858.066,1.566.2,3.111c.477.872.584-.5,1.265-.651-.2,1.035-1.562,1.329-.7,2.732l.878-.314c-2.378,5.431,1.609,15.685-2.116,19.708,1.4,5.2-1.009,8.858,1.1,15.17-.782,1.992-1.513-2.314-1.731.377l1.362,5.81c2.335,5.665-3.033,14.75-1.169,21.722l-.131-.3c-.607-.164-1.343,1.3-1.136,2.442.431.4.656-.371,1.173-1.056.391,2.407.64,4.1.809,5.58.085.741.15,1.43.2,2.131.007.088.013.175.019.263l0,.066,0,.031,0,.009.009.037.034.148.059.3,1.388-.015.414,0,.215,0h.5l3.673-.008c-9.334.21,8.661.182,9.592.474,5.693-.19-3.271-.3,9.391-.461,18.018-.027,34.617.224,49.569.327,6.064-.259,14.021-.188,14.418-.508,20.35-.019,31.679-.146,56.658-.143l.64.11c6.719-.4,21.652.2,26.308-.028-.693.141-3.354.2-2.688.31l11.348-.129c-5.36.121-8.418.5.916.542,9.713-.281-2.672-.191,2.059-.421l2.93.371c7.328-.04,9.388-.46.424-.572,24.991,0,49.663-.173,71.928-.111l-2.366.242c12.329-.089,28.988-.088,36.309.124.333-.071,3.365-.2,1.4-.28,13.473-.3,3.547.286,14.2.109.956-.018,1.934-.036,2.87-.056l.526-.011-.526.011c-1.094.024-2.044.042-2.87.056-3.008.056-5.788.11-6.272.212l30.018-.3c.314.18,18.555.583,31.244.424A47.837,47.837,0,0,0,388.2,326l-3.233.038c.84-.036,1.987-.046,3.233-.038l8.123-.09,6.257.419,11.757-.368-.038-.081,2.339.01-2.3.071.212.351c8.661-.07,12.1-.52,19.1-.489,26.228.223,20.895.343,39.519.676,2.1-.671,29.646.025,34.378-.456,24.885.5,60.929.2,93.543.343l-2.672.059c13.937.311,15.868-.509,30.9-.373l-3.762.1c19.3.358,53.157.031,71.474-.252-3.744.1-1.847.316,4.058.292,4.989-.131-4.853-.47,5.526-.343-2.562.065-.537.212,1.828.216l10.175-.334c26.633.23,57.964.47,85.574.277,5.122.118,1.37.239.159.354,21.894-.071,43.668-.35,63.434-.411l2.006.387c9.683,0,6-.593,18.593-.248,2.809.052-8.328.025-11.784.2,19.445.294,11.477-.378,30.044-.334l-4.853.437a190.641,190.641,0,0,0,21.414-.488c19.99-.515,14.2.843,41.393.457,4.307-.215-1.424-.318,2.884-.533,19.127.113,21.4-.2,40.579-.084,10.232.652-9.759,0,1.378.61l-14.574-.148c12.567.344-11.424.087-9.456.474,9.418.112,23.741-.215,36.032-.344,0,.292-14.278.034-8.6.429l6.3-.119c-1.726.086-2.033.2-5.719.189,2.264.275,7.411.016,13.427.009.393-.146.12-.35-1.67-.552-.091-.008-.164-.017-.222-.025l.222.025c.271.025.7.052,1.387.08,12.317-.42,33.129-.1,43.7-.436-1.7.087-.25.112.306.181,7.457.016,15.126-.369,25.127-.481,5.451.215-3.153.644,12.862.525,2.847-.241-4.27-.662,9.149-.653,0,0-11.719.2-5.451.368,13.177-.169,4.27.078,16.265.353,6.874-.342,13.139.121,14.592-.437,4.27.37,3.123.233,11.413.5-3.687-.3,15.69-.3,15.145-.662,3.4.413-14.017.507-3.18.937,7.423-.275,21.194-.377,22.329-.823,5.507.1,8.091.255,16.295.305.273,0,.542,0,.8,0l-.8,0c-1.2.008-2.475.072-3.19.107,15.709-.3,38.879,0,47.748-.539-3.168.644,33.371.079,21.387.679,6.56-.021,16.894-.295,19.139-.415.026-.02-.091-.034-.008-.057.795,0,.61.025.008.057-.7.5,16.284.127,23.408.424,3.543-.271,14.537-.194,21.729-.333l.858-.018-.858.018c-2.614.059-3.914.142-2.893.265,8.021-.206,6.026-.009,12.862.231,10.879-.154-1.995-.384,4.576-.619,9.414.115,1.424.319,3.123.526l14.028-.506c2.835.051,4.841.146,5.988.283,4.842-.147,9.168-.361,15.989-.119l-12.026.016,4.6.257,14.29-.324c5.031.091,8.438.192,10.7.3l-.184-.767,1.629.826v-2.068c-.245-.68.122-1.555-.194-1.867a.561.561,0,0,0,.194.027v-2.7c-.755-.823-.636-1.257-1.851-2.309a1.736,1.736,0,0,1,1.851.021v-2.064c-1.037-1.144-1.382-4.379-1.724-6.49.527.705.948,2.4,1.724,2.043v-.459c-.458-1.934-1.265-3.793-1.678-5.673a2.816,2.816,0,0,1-.43-1.024,2.144,2.144,0,0,0,.256.062c-.031-.22-.059-.446-.074-.681a3,3,0,0,1-.013-.979c-.014.329,0,.656.013.979a.79.79,0,0,0,.6.608c-.122.145-.317.132-.523.073.044.324.1.638.174.962a5.786,5.786,0,0,0,1.678,1.528v-1.77a2,2,0,0,1-.789-1.445,3.12,3.12,0,0,1,.789-.784V291.486a17.3,17.3,0,0,1-1.053-3.393c-2.253-5.179,1.38-10.042-.261-13.643-.6-.2-1.062,2.692-1.44.356,1.208.405.773-1.4,1.255-1.517-1.762-2.535.392-3.739-.813-5.535.42.42.885-1.055,1.3-2.026a1.841,1.841,0,0,1-.594-.218l.6.2a.1.1,0,0,0-.008.022c.621.118.828-.347,1.012-.665v-6.7a5.389,5.389,0,0,0-1.165-1.286l-.42.972.7-3.818-.035.163a13.3,13.3,0,0,1-.493,2.045l.493-2.045c.216-1.451-.062-1.827.919-3.406V246h-15.473c-.573.02-1.36.023-2.546,0h-3.953c-.289.048-.6.1-.158.14,1,.032,1.821.061,1.9.082-1.083-.025-1.628-.054-1.9-.082-1.291-.04-3.057-.088-4.712-.14h-10.953a27.218,27.218,0,0,1,3.253.212l-24.166.143c-2.7,0,2-.135,5.387-.137-5.126-.133-10.275-.2-15.458-.219h-9.115c-20.136.074-40.908.56-63.089,0h-1.088c2.175.179-3.155.168-6.019.312-10.372-.071-26.054-.012-35.654-.15l3.059-.155c-24.684.19-41.7.435-57.991.338-.8.067.121-.223,3.066-.268-5.168.122-10.776.025-15.755-.077H1143.1c-.161.019-.312.039-.44.063l4.433.047c-23.787-.1-50.106.334-74.688.412-5.758-.361,14.168-.038,9.137-.465-17.049-.142-34.34.162-52.9.041,2.539-.037,2.455-.073,3.224-.1h-7.733c.218.113,4.381.327-5.242.294.775-.164.188-.215-3.968-.294h-1.452l-4.248.268c-.563-.034-.639-.166.305-.268h-.884c-8.356.247-25.873.065-30.82.387-.958-.062.562-.238.92-.387H958.684c-.125.181-3.275.175-7.327.15-3.149.044-6.541.058-10.6-.006,3.353-.049,7.272-.016,10.6.006,2.515-.036,4.891-.093,7.3-.15H932.729c-.7.055-2.037.111-4.66.162l11.848.161-20.933.081,8.3-.175c-9.6-.139-19.476.17-30.646.163l5.118.206L889,246.724c-1.257-.425-16.318-.1-9.323-.587-23.341-.209-38.466.322-59.548.372-.287,0-.62,0-1.013,0l1.013,0c2.457-.014,1.36-.092,2.038-.153-12.586-.1-20.164.125-27.7.345,1.54-.133,4.546-.176,4.6-.289-14.9-.005-9.054.243-25.494.37,4.546-.177,3.123-.269-1.359-.314.693.156-3.1.266-6.117.31,10.474-.715-9.98-.466-11.782-.779h-5.79C741.725,246.175,732.791,246.4,735.651,246.608Zm670.292,67.7c.153.085.164.322.164.6l.349,1.252c-.4-.284-.352-.819-.349-1.252l-.164-.6a.321.321,0,0,0-.223-.064l.057-.536Zm.33-19.793c.848,1.014-1.1,3.6-.358,4.3l.5.169a.84.84,0,0,1-.5-.169l-.4-.139C1405.2,297.189,1406.159,295.578,1406.274,294.512Zm-338.962-48.305-3.115.267-6.545-.181Zm-42.4,80.071c-.942-.1-2.15-.2-4.092-.287C1036.57,325.969,1023.549,326.05,1024.915,326.277Z" transform="translate(-28.014 -246)" fill="#ececec"/>
</svg>
