<svg xmlns="http://www.w3.org/2000/svg" width="525.487" height="82.403" viewBox="0 0 525.487 82.403">
  <path id="tab_small" d="M296.649,246.608h.014l0,0c.074.014.166.028.281.042l1.7-.063c.2.234-2.112.141-3.855.158-1.236.052-2.361.077-.706.014.217-.008.46-.013.706-.014a15.138,15.138,0,0,0,1.876-.137l-.01,0c-8.836.279-18.107.021-28.038.233.862-.088,4.866-.24,2.312-.311-9.862-.124-15.6.317-25.544.528-.45-.539,10.76-.077,11.138-.59-10.483.12-21.267.308-32.921.585-4.07-.79-11.369.322-18.6-.294.684.265-2.911.36-6.834.368-.01,0,0,0-.01.006l-.586-.006c-1.908,0-3.851-.016-5.346-.047l5.346.047h.6c1.348-.216-2.792-.221-1.641-.377-3.439.242-13.36.342-12.97-.173-.9.5-7.378-.024-10.206.329,1.045.043,2.056.108,3.011.221l-3.631-.139a6.037,6.037,0,0,1,.621-.083c-4.337-.186-9.3.1-14.738-.046,1.72.283-4.007.178-6.641.25-.266.013-.554.024-.762.032.2-.014.464-.024.762-.032.45-.022.836-.05.662-.078-1.631-.272-6.265.238-9.335.077-1.39-.113.343-.29-1.913-.315-.052.223-8.307.483-11.367.21a12.8,12.8,0,0,0,2.3-.2c-14.486.383-29.947-.084-44.745.367L90.2,246.8c-9.244-.484-6.073.619-13.406.565-8.287-.076-16.7-.212-25.1-.329q-6.3-.088-12.567-.151-3.129-.029-6.24-.046l-4.054-.016q.013.938.026,1.859.025,1.567.077,3.113c.181.872.222-.5.48-.651-.076,1.035-.593,1.33-.267,2.734l.333-.314c-.9,5.434.611,15.694-.8,19.719.533,5.2-.383,8.863.417,15.179-.3,1.993-.574-2.316-.657.378l.517,5.813c.886,5.668-1.151,14.758-.444,21.734l-.05-.3c-.23-.164-.51,1.3-.431,2.443.164.4.249-.371.445-1.057.148,2.409.243,4.1.307,5.583.032.742.057,1.431.077,2.132q0,.131.007.264l0,.066v.04l0,.037.013.148.023.3.527-.015.157,0,.082,0h.191L31.257,326c-3.544.21,3.288.182,3.641.474,2.161-.19-1.242-.3,3.565-.462,6.84-.027,13.141.224,18.817.327,2.3-.259,5.323-.188,5.473-.508,7.725-.019,12.026-.146,21.509-.143l.243.11c2.551-.4,8.22.2,9.987-.028-.263.141-1.273.2-1.02.31l4.308-.129c-2.035.121-3.2.5.348.543,3.687-.281-1.014-.191.782-.421l1.112.371c2.782-.04,3.564-.46.161-.572,9.487,0,18.853-.173,27.306-.112l-.9.242c4.68-.089,11-.087,13.784.125.126-.071,1.277-.2.53-.28,5.115-.3,1.346.287,5.39.109.363-.018.734-.036,1.089-.056l.2-.012-.2.012c-.415.024-.776.042-1.089.056a13.25,13.25,0,0,0-2.381.212l11.4-.3a84.694,84.694,0,0,0,11.861.424,7.091,7.091,0,0,0-2.424-.258l-1.227.038a10.265,10.265,0,0,1,1.227-.038l3.084-.09,2.375.42,4.463-.368-.014-.081.888.01-.874.071.081.351c3.288-.07,4.593-.52,7.251-.489,9.957.224,7.932.344,15,.676.8-.671,11.254.025,13.051-.457,9.447.5,23.13.2,35.511.343l-1.014.059c5.291.312,6.024-.509,11.729-.373l-1.428.1c7.326.358,20.18.031,27.133-.252-1.421.1-.7.316,1.54.292,1.894-.131-1.842-.47,2.1-.343-.973.065-.2.212.694.216l3.863-.334c10.111.23,22,.47,32.486.277,1.944.118.52.24.06.355,8.312-.071,16.577-.35,24.081-.411l.762.387c3.676,0,2.276-.593,7.059-.248,1.066.052-3.161.025-4.473.2,7.382.294,4.357-.378,11.405-.334l-1.842.437a27.794,27.794,0,0,0,8.129-.488c7.589-.515,5.392.843,15.714.457,1.635-.215-.54-.318,1.095-.533,7.261.113,8.125-.2,15.4-.084,3.884.652-3.7,0,.523.61l-5.533-.148c4.771.344-4.337.087-3.59.474,3.575.112,9.013-.215,13.679-.344,0,.292-5.42.034-3.266.429l2.392-.119a9.411,9.411,0,0,1-2.171.189c.859.275,2.814.016,5.1.009.149-.146.046-.35-.634-.553a.811.811,0,0,1-.084-.025l.084.025a4.287,4.287,0,0,0,.526.08c4.676-.42,12.576-.1,16.59-.436-.645.087-.095.112.116.181,2.831.016,5.742-.37,9.539-.481,2.069.216-1.2.644,4.883.525,1.081-.241-1.621-.662,3.473-.653,0,0-4.449.2-2.069.368,5-.17,1.621.078,6.175.353,2.61-.343,4.988.121,5.54-.437a21.364,21.364,0,0,0,4.332.5c-1.4-.3,5.956-.3,5.749-.662,1.292.413-5.321.507-1.207.937,2.818-.275,8.046-.377,8.477-.823,2.091.1,3.071.255,6.186.305.1,0,.206,0,.3,0l-.3,0a11.324,11.324,0,0,0-1.211.107c5.963-.3,14.759,0,18.126-.54-1.2.644,12.668.079,8.119.679,2.49-.021,6.413-.295,7.265-.415.01-.02-.034-.034,0-.057.3,0,.231.025,0,.057-.267.5,6.182.127,8.886.425,1.345-.271,5.519-.194,8.249-.333l.326-.018-.326.018c-.992.059-1.486.142-1.1.266,3.045-.206,2.288-.009,4.883.231,4.13-.154-.757-.384,1.737-.619,3.574.115.541.319,1.186.526l5.325-.506a10.221,10.221,0,0,1,2.273.283,30.279,30.279,0,0,1,6.07-.119l-4.565.016,1.747.257,5.425-.324c1.91.091,3.2.192,4.061.3l-.07-.767.618.826v-2.069c-.093-.68.046-1.556-.074-1.868a.1.1,0,0,0,.074.027v-2.7a19.213,19.213,0,0,0-.7-2.31c.247-.386.486-.305.7.021v-2.065a39.075,39.075,0,0,1-.654-6.494c.2.706.36,2.4.654,2.044v-.459c-.174-1.936-.48-3.8-.637-5.676a5.982,5.982,0,0,1-.163-1.025.478.478,0,0,0,.1.062c-.012-.22-.022-.446-.028-.681a7.862,7.862,0,0,1-.005-.979c-.005.329,0,.657.005.979a.858.858,0,0,0,.227.608c-.046.145-.12.132-.2.073.017.324.039.638.066.962a5.8,5.8,0,0,0,.637,1.529v-1.771a3.536,3.536,0,0,1-.3-1.446,3.431,3.431,0,0,1,.3-.785V291.512c-.148-.911-.287-1.967-.4-3.395-.855-5.182.524-10.048-.1-13.651-.229-.2-.4,2.694-.547.356.458.406.293-1.4.476-1.518-.669-2.537.149-3.741-.309-5.538.16.421.336-1.056.493-2.027a.576.576,0,0,1-.226-.218l.229.2c0,.007,0,.013,0,.022.236.118.314-.348.384-.665v-6.708a6.835,6.835,0,0,0-.442-1.286l-.159.973.266-3.82-.013.163c-.03.516-.081,1.161-.187,2.047l.187-2.047a14.205,14.205,0,0,1,.349-3.408V246h-5.874a7.007,7.007,0,0,1-.966,0h-1.5c-.11.048-.227.1-.06.141a5.475,5.475,0,0,1,.723.082,4.194,4.194,0,0,1-.723-.082c-.49-.04-1.16-.088-1.789-.141h-4.158a4.1,4.1,0,0,1,1.235.212l-9.174.143c-1.025,0,.757-.135,2.045-.137-1.946-.133-3.9-.2-5.868-.219h-3.46c-7.644.075-15.529.56-23.95,0h-.413c.826.18-1.2.168-2.285.312-3.937-.071-9.891-.012-13.535-.15l1.161-.155c-9.371.19-15.83.435-22.015.338-.3.067.046-.223,1.164-.268a52.908,52.908,0,0,1-5.981-.077h-5.144a1.233,1.233,0,0,0-.167.063l1.683.047c-9.03-.1-19.021.334-28.353.412-2.186-.361,5.379-.038,3.469-.466-6.472-.142-13.036.162-20.08.041a10.085,10.085,0,0,0,1.224-.1h-2.936c.083.113,1.663.327-1.99.294.294-.164.071-.215-1.506-.294h-.551l-1.613.268c-.214-.034-.242-.166.116-.268h-.336c-3.172.247-9.822.065-11.7.387-.364-.062.213-.239.349-.387h-7.616c-.048.181-1.243.175-2.782.151-1.2.045-2.483.058-4.023-.006,1.273-.049,2.76-.016,4.023.006.955-.036,1.857-.093,2.771-.151h-9.843a13.5,13.5,0,0,1-1.769.162l4.5.161-7.947.081,3.151-.175c-3.646-.139-7.393.17-11.634.163l1.943.206-4.841.127c-.477-.425-6.195-.1-3.539-.587-8.861-.209-14.6.322-22.606.372-.109,0-.235,0-.385,0l.385,0c.933-.014.516-.092.774-.153a95.816,95.816,0,0,0-10.517.345,13.518,13.518,0,0,0,1.746-.29c-5.655-.005-3.437.243-9.678.37,1.726-.178,1.185-.269-.516-.314.263.156-1.175.266-2.322.31,3.976-.716-3.789-.467-4.473-.779h-2.2C298.954,246.175,295.563,246.4,296.649,246.608Zm254.458,67.735a1.482,1.482,0,0,1,.062.6l.132,1.253a3.189,3.189,0,0,1-.132-1.253l-.062-.6c-.022-.041-.05-.073-.085-.064l.021-.536Zm.125-19.8c.322,1.014-.419,3.607-.136,4.307l.191.169a.26.26,0,0,1-.191-.169l-.152-.139A30.215,30.215,0,0,1,551.232,294.539ZM422.554,246.206l-1.183.267-2.485-.181ZM406.46,326.323a10.473,10.473,0,0,0-1.553-.288C410.884,326.014,405.941,326.1,406.46,326.323Z" transform="translate(-27.511 -245.5)" fill="#f77e0b" stroke="rgba(0,0,0,0)" stroke-width="1"/>
</svg>
